<svg width="144" height="144" xmlns="http://www.w3.org/2000/svg"><path style="fill:#666;stroke-width:1.33333" d="M57.183 142.264c-27.113-5.89-48.573-27.57-54.37-54.929-3.472-16.381-1.89-29.566 5.46-45.5C13.88 29.673 28.29 14.76 39.742 9.267 73.576-6.962 111.697 3.14 131.97 33.71c6.936 10.458 10.355 21.266 11.151 35.243 1.21 21.223-5.61 38.972-20.784 54.09-17.404 17.34-41.326 24.397-65.153 19.221zm-19.63-26.694 11.089-3.382 8.061 2.716c28.577 9.626 57.82-9.314 60.975-39.491.592-5.664.18-10.229-1.423-15.739-2.695-9.27-4.785-12.848-11.976-20.5-21.986-23.396-60.687-16.648-75.097 13.095-4.776 9.858-5.1 26.654-.7 36.338l2.873 6.321-3.92 11.596c-2.156 6.378-3.92 11.783-3.92 12.012 0 .978 3.61.215 14.037-2.966zm27.759-7.277c-3.046-.45-7.952-1.907-10.903-3.238-4.98-2.246-5.803-2.27-11.463-.342-3.353 1.143-6.097 1.89-6.097 1.66 0-.23.921-3.03 2.047-6.22 1.976-5.602 1.925-6.074-1.496-13.697-3.076-6.854-3.462-9.17-2.923-17.558 2.4-37.392 50.8-48.323 69.872-15.78 4.21 7.183 5.667 20.238 3.23 28.94-4.893 17.476-23.478 29.011-42.267 26.235Zm24.775-15.29c7.297-3.775 7.216-8.833-.212-13.263l-5.641-3.364-3.695 3.54-3.694 3.54-5.6-3.937c-3.081-2.165-6.75-5.903-8.155-8.308-2.462-4.217-2.468-4.465-.146-7.03 2.141-2.366 2.213-3.202.652-7.61-.964-2.723-2.35-5.702-3.08-6.618-3.388-4.255-10.749.45-12.39 7.918-1.953 8.896 12.296 27.916 25.39 33.888 7.9 3.603 11.486 3.872 16.57 1.243z"/></svg>