<?xml version="1.0" encoding="UTF-8" standalone="no"?>
<!-- Created with Inkscape (http://www.inkscape.org/) -->

<svg
        version="1.1"
        id="svg2"
        width="300"
        height="300"
        viewBox="0 0 300 300"
        sodipodi:docname="personal1.svg"
        inkscape:version="1.1.1 (3bf5ae0d25, 2021-09-20)"
        xmlns:inkscape="http://www.inkscape.org/namespaces/inkscape"
        xmlns:sodipodi="http://sodipodi.sourceforge.net/DTD/sodipodi-0.dtd"
        xmlns="http://www.w3.org/2000/svg"
>
  <defs
     id="defs6" />
  <sodipodi:namedview
     id="namedview4"
     pagecolor="#ffffff"
     bordercolor="#666666"
     borderopacity="1.0"
     inkscape:pageshadow="2"
     inkscape:pageopacity="0.0"
     inkscape:pagecheckerboard="0"
     showgrid="false"
     inkscape:zoom="2.1"
     inkscape:cx="177.38095"
     inkscape:cy="156.19048"
     inkscape:window-width="1920"
     inkscape:window-height="998"
     inkscape:window-x="0"
     inkscape:window-y="0"
     inkscape:window-maximized="1"
     inkscape:current-layer="g8" />
  <g
     inkscape:groupmode="layer"
     inkscape:label="Image"
     id="g8">
    <path
       style="fill:#4d4d4d;stroke-width:1.33333"
       d="M 7.7032538,297.6078 C 0.58119381,294.51341 -1.0524062,288.73894 0.80152381,273.21157 7.0179438,221.14692 39.991634,176.65274 87.419834,156.33018 c 3.3,-1.41401 6.13294,-2.63597 6.29541,-2.71545 0.16248,-0.0795 -2.83752,-3.47065 -6.66666,-7.53593 -8.83404,-9.37882 -16.22432,-21.86369 -20.00486,-33.79552 -4.23421,-13.363661 -4.23421,-38.636347 0,-52.000001 8.63902,-27.265768 31.24322,-49.019962 59.709436,-57.4641409 10.96028,-3.25124124 34.37306,-3.25124124 45.33334,0 28.46621,8.4441789 51.07041,30.1983729 59.70944,57.4641409 4.23421,13.363654 4.23421,38.63634 0,52.000001 -8.34752,26.34576 -28.83251,47.0201 -55.43915,55.95166 -8.15877,2.73882 -14.59527,3.73416 -30.17689,4.66659 -24.99937,1.49601 -34.45803,3.78532 -52.760066,12.76971 -21.49087,10.54977 -37.1698,25.10685 -49.48617,45.94537 -5.30904,8.98255 -13.84717,31.60096 -13.84717,36.68261 0,1.7418 14.63724,1.98406 119.881746,1.98406 h 119.88175 l -1.83301,-7.85744 c -4.15468,-17.80955 -11.84936,-32.66523 -25.17915,-48.61202 -7.73648,-9.25534 -8.75133,-11.12053 -8.75133,-16.08388 0,-10.01089 10.88545,-16.82665 19.64194,-12.29849 8.78766,4.54428 23.9306,24.54668 32.61824,43.08564 9.75822,20.82345 15.40747,52.265 11.20003,62.33484 -3.85836,9.23436 4.04263,8.77055 -148.41739,8.71249 C 33.387794,299.52032 11.405184,299.21621 7.7032538,297.6078 Z M 167.8552,141.02952 c 26.24543,-9.02975 43.18136,-36.79395 38.6348,-63.336576 -4.93489,-28.809668 -28.2736,-48.742999 -57.07017,-48.742999 -28.79658,0 -52.135286,19.933331 -57.070176,48.742999 -4.49901,26.265056 12.250336,54.059866 38.119416,63.257506 9.73059,3.45968 27.45131,3.49715 37.38613,0.0791 z"
       id="path863" />
  </g>
</svg>
