<svg width="64" height="64" version="1.1" viewBox="0 0 64 64" xmlns="http://www.w3.org/2000/svg">
 <path d="m30.913 63.981c-0.02025-0.01783-0.48878-0.05574-1.0412-0.08423-5.3891-0.27799-11.014-2.2066-15.793-5.4147-7.2336-4.8565-12.257-12.672-13.66-21.251-0.31488-1.9261-0.42028-3.2643-0.41855-5.3139 0.001703-2.0291 0.10228-3.2888 0.41522-5.2014 2.184-13.348 12.728-23.981 26.084-26.304 1.8724-0.32563 3.2477-0.42445 5.7154-0.41068 3.153 0.017606 4.9675 0.23997 7.7769 0.95305 10.087 2.5601 18.412 10.067 22.043 19.875 1.3728 3.7096 1.9613 7.0286 1.9656 11.088 0.0024 2.2687-0.10674 3.6216-0.44916 5.565-1.1494 6.5237-4.1951 12.369-8.9144 17.108-5.1938 5.2159-11.838 8.3882-19.283 9.2064-1.0682 0.1174-4.3619 0.25427-4.441 0.18454zm19.699-17.993c0.35773-0.14944 0.78148-0.64198 0.89073-1.0353 0.12242-0.44073 0.12242-25.547 0-25.988-0.10925-0.39333-0.533-0.88586-0.89073-1.0353-0.40308-0.16839-36.809-0.16839-37.212 0-0.35773 0.14944-0.78148 0.64197-0.89073 1.0353-0.12242 0.44073-0.12242 25.547 0 25.988 0.10643 0.38316 0.52793 0.88175 0.87225 1.0318 0.38053 0.16578 36.834 0.16927 37.231 0.0036zm-31.907-3.1297c0.0058-0.05775 8.7764-7.8963 9.2358-8.2543l0.20249-0.1578 1.4505 1.2726c0.79776 0.6999 1.5635 1.3339 1.7016 1.4088 0.31398 0.17036 1.0943 0.17892 1.3955 0.0153 0.12303-0.06685 0.90368-0.7162 1.7348-1.443l1.5112-1.3215 4.6681 4.1582c2.5674 2.287 4.7233 4.2091 4.7906 4.2713 0.10304 0.09516-2.013 0.11318-13.287 0.11318-7.3753 0-13.407-0.02825-13.404-0.06276zm-3.1032-10.479v-8.8818l1.0253 0.89168c0.56391 0.49042 2.837 2.4759 5.0512 4.4121l4.0259 3.5204-4.98 4.4418c-2.739 2.443-5.012 4.4544-5.0512 4.4697-0.03918 0.01534-0.07124-3.9689-0.07124-8.8539zm27.75 4.3618c-2.7137-2.4259-4.9294-4.4413-4.9238-4.4787 0.0078-0.05239 6.0371-5.3544 9.5021-8.3559l0.48127-0.4169v8.8369c0 4.8603-0.02825 8.8343-0.06277 8.8311-0.03453-0.0032-2.283-1.9907-4.9967-4.4166zm-18.211-9.1433c-3.7506-3.2735-6.835-5.9664-6.8542-5.9841-0.01918-0.01775 6.1295-0.03228 13.664-0.03228 7.5343 0 13.696 0.02825 13.692 0.06276-0.0071 0.06867-13.496 11.843-13.611 11.881-0.03917 0.01305-3.1398-2.6546-6.8904-5.9281z" style="fill:#666;stroke-width:.083692"/>
</svg>
