<?xml version="1.0" encoding="UTF-8" standalone="no"?>
<!-- Created with Inkscape (http://www.inkscape.org/) -->

<svg
        version="1.1"
        id="svg6376"
        width="1200"
        height="320"
        viewBox="0 0 1200 320"
        sodipodi:docname="forbs1.svg"
        inkscape:version="1.1.1 (3bf5ae0d25, 2021-09-20)"
        xmlns:inkscape="http://www.inkscape.org/namespaces/inkscape"
        xmlns:sodipodi="http://sodipodi.sourceforge.net/DTD/sodipodi-0.dtd"
        xmlns="http://www.w3.org/2000/svg"
>
  <defs
     id="defs6380" />
  <sodipodi:namedview
     id="namedview6378"
     pagecolor="#ffffff"
     bordercolor="#666666"
     borderopacity="1.0"
     inkscape:pageshadow="2"
     inkscape:pageopacity="0.0"
     inkscape:pagecheckerboard="0"
     showgrid="false"
     inkscape:zoom="0.70710678"
     inkscape:cx="453.25544"
     inkscape:cy="130.10765"
     inkscape:window-width="1920"
     inkscape:window-height="998"
     inkscape:window-x="0"
     inkscape:window-y="0"
     inkscape:window-maximized="1"
     inkscape:current-layer="g6382" />
  <g
     inkscape:groupmode="layer"
     inkscape:label="Image"
     id="g6382">
    <path
       style="fill:#808080;stroke-width:1.33333"
       d="m 308.35265,305.28258 c -50.52796,-7.76524 -80.31308,-46.06256 -80.26305,-103.20123 0.0291,-33.16585 9.63745,-58.22253 30.21868,-78.80376 7.72248,-7.72249 12.15719,-10.81353 23.42555,-16.32791 17.13673,-8.386164 28.77374,-10.871564 50.8435,-10.858984 19.52988,0.0111 33.97579,3.0259 49.02379,10.230954 13.94545,6.67716 30.82296,23.58166 37.69939,37.7597 13.72508,28.2988 16.24208,64.95391 6.45926,94.06615 -5.63472,16.76809 -12.54097,27.95699 -24.66206,39.95533 -12.30432,12.1797 -26.55148,20.28446 -43.46416,24.72536 -11.88054,3.11958 -36.85807,4.36355 -49.2809,2.45439 z m 31.04194,-11.96405 c 7.03513,-1.95355 14.82984,-9.41046 18.95776,-18.13616 15.48498,-32.73255 14.7597,-113.90672 -1.30092,-145.60083 -4.18603,-8.26072 -11.70086,-16.88854 -17.17598,-19.71984 -9.83514,-5.08595 -26.59604,-1.12816 -33.3457,7.87401 -12.12038,16.16521 -18.07479,49.30567 -16.47214,91.67898 1.70963,45.2022 11.70683,73.17794 29.2796,81.93482 7.40587,3.6905 12.17272,4.15846 20.05738,1.96902 z m 332.90562,11.98189 c -11.27526,-1.07867 -30.96305,-4.16699 -42.94322,-6.73627 l -6.28003,-1.34682 0.74488,-82.90132 c 0.75731,-84.28565 -0.69699,-150.476153 -3.51481,-159.972393 -2.54478,-8.57604 -7.49287,-12.83286 -17.00682,-14.63085 -7.83861,-1.48138 -8.33333,-1.79423 -8.33333,-5.26981 0,-2.03222 0.5844,-3.69494 1.29867,-3.69494 0.71426,0 19.83149,-3.6 42.48273,-8 22.65124,-4.4 41.84187,-8 42.64584,-8 1.04831,0 1.22733,13.4484 0.63293,47.54577 -0.80906,46.411063 -0.76796,47.526863 1.72216,46.754103 1.40306,-0.4354 6.751,-2.38236 11.88434,-4.32656 10.89132,-4.12499 26.27873,-7.316414 35.11729,-7.283494 3.41883,0.0128 10.31692,0.89204 15.32909,1.95402 31.23443,6.617914 53.66511,30.217824 62.537,65.796804 4.27899,17.16003 3.92275,43.91876 -0.82701,62.12077 -5.97769,22.90771 -14.22592,37.18495 -29.71828,51.44072 -24.52073,22.56351 -58.44163,31.07818 -105.77143,26.55027 z m 40.69371,-15.02884 c 23.59619,-10.98804 38.31497,-51.57739 36.26485,-100.00597 -1.44845,-34.21602 -11.4025,-57.06537 -29.1396,-66.88946 -6.5073,-3.60422 -8.23445,-3.95196 -19.15229,-3.8561 -6.6,0.0579 -13.65,0.79309 -15.66667,1.63366 l -3.66666,1.52831 0.17504,53.69967 c 0.0963,29.53481 0.54628,67.47382 1,84.3089 l 0.82496,30.60924 3.33333,0.92452 c 7.5434,2.0922 19.2224,1.21595 26.02704,-1.95277 z m 202.63963,15.07516 c -40.26448,-5.3508 -72.47082,-33.92877 -82.5674,-73.26539 -3.43507,-13.38316 -4.14455,-35.70542 -1.59795,-50.27662 9.27668,-53.07971 47.3688,-85.633134 100.2854,-85.703664 26.17693,-0.0349 42.47613,5.950004 57.99671,21.295784 14.41839,14.25595 23.68559,36.5679 25.94459,62.46446 l 0.9497,10.88671 h -62.83888 -62.83884 v 9.38955 c 0,29.61505 14.55497,57.73946 35.71927,69.0199 11.25061,5.99652 21.40446,8.25722 37.08708,8.25722 15.5799,0 26.66938,-2.79006 36.90667,-9.28551 7.7442,-4.91364 8.5918,-4.96749 10.5498,-0.67024 1.4059,3.08557 1.0287,3.90693 -4.3619,9.50056 -21.21744,22.01608 -56.52021,33.00044 -91.23425,28.38724 z m 29.32506,-128.81068 10.39407,-0.87861 -0.80553,-15.45472 c -1.75824,-33.73317 -11.34618,-52.12138 -27.17699,-52.12138 -10.16656,0 -18.19616,6.43523 -25.14845,20.15494 -6.00983,11.85981 -11.13567,32.63624 -11.22842,45.51173 l -0.0264,3.66667 h 21.79883 c 11.98936,0 26.47616,-0.39538 32.1929,-0.87863 z m 135.81089,128.93937 c -12.5158,-1.44121 -28.9702,-4.8119 -39.7633,-8.14557 -6.7825,-2.09491 -8.8105,-3.32596 -9.2769,-5.63141 -0.3283,-1.62274 -0.8976,-14.74002 -1.2651,-29.1495 -0.6654,-26.09006 -0.656,-26.20232 2.2506,-26.9818 4.7066,-1.26216 7.5858,-0.94025 7.5806,0.84754 0,0.91666 3.0333,7.7857 6.7466,15.26453 12.182,24.53484 27.2744,36.40924 47.6749,37.50951 12.3144,0.66414 19.9618,-1.4636 27.042,-7.52395 7.3749,-6.31269 10.4753,-13.41128 10.5121,-24.06856 0.061,-17.53829 -10.6064,-26.46611 -47.8704,-40.06576 -36.2741,-13.23843 -50.8273,-31.49492 -49.1104,-61.60735 0.5327,-9.34241 1.4825,-13.38844 4.8138,-20.50727 8.3485,-17.84044 27.6407,-32.05525 50.4594,-37.179474 19.6628,-4.41551 53.0848,-2.3879 75.6809,4.591344 l 8.4767,2.61816 0.7393,6.31774 c 0.4066,3.47476 1.1213,15.10704 1.5881,25.8495 l 0.8489,19.53176 -4.2636,0.93647 c -5.1662,1.13467 -5.4674,0.82144 -9.2846,-9.6552 -5.8493,-16.05405 -15.8556,-28.72996 -27.3822,-34.68759 -8.8914,-4.59565 -25.8933,-5.80092 -32.7666,-2.32285 -10.9557,5.54393 -15.967,13.84133 -16.0649,26.59937 -0.08,10.37459 2.5551,16.48062 9.7799,22.66475 5.8904,5.04199 21.6209,13.154 37.7183,19.45088 25.5572,9.99731 40.2614,20.76175 46.941,34.36387 3.4753,7.07701 3.7256,8.70666 3.7256,24.25345 0,19.42567 -1.901,26.2066 -10.6122,37.85303 -9.8896,13.22201 -22.771,21.22346 -42.1204,26.16382 -12.5753,3.21075 -37.3907,4.48474 -52.7981,2.71056 z m -1061.549764,-8.97886 0.41382,-4.91812 9.656073,-1.61963 c 5.31084,-0.89079 11.602534,-2.75641 13.981542,-4.14583 6.580676,-3.84333 11.462926,-11.8595 13.658669,-22.42618 C 63.067744,233.84903 63.022653,85.691736 56.867559,58.749577 52.820261,41.033697 45.787761,34.406667 28.277301,31.807737 l -9.310412,-1.38187 v -5.17225 -5.17226 H 136.96689 254.96688 l 0.0147,34.33333 c 0.008,18.88333 0.38214,36.556039 0.83128,39.272689 l 0.8166,4.93935 -6.49795,1.636204 c -3.57385,0.89991 -6.79793,1.38441 -7.1646,1.07665 -0.36667,-0.30775 -1.97375,-4.297324 -3.57128,-8.865714 -7.31634,-20.922079 -20.43715,-39.011479 -33.4226,-46.079059 -11.89563,-6.4744 -19.62987,-7.64679 -50.44622,-7.64679 H 127.3137 l -0.83503,6.33334 c -1.45119,11.00674 -2.67325,107.870143 -1.37108,108.674933 0.66864,0.41324 9.9492,0.3118 20.62346,-0.22543 16.9909,-0.85515 20.1442,-1.38197 25.32178,-4.2306 7.33601,-4.03617 13.47498,-12.92987 17.45506,-25.28759 l 2.98388,-9.26465 h 5.07088 5.0709 v 46.66667 46.66666 h -5.0709 -5.07088 l -2.91452,-9.04928 c -4.05824,-12.60042 -9.52406,-20.67301 -16.94001,-25.01905 -6.41705,-3.76064 -6.01119,-3.70271 -35.67035,-5.09063 l -11.66667,-0.54594 0.024,15.51912 c 0.0406,26.31648 2.55359,69.26076 4.64051,79.3031 3.68075,17.71187 12.73497,25.59424 31.17505,27.14019 l 9.49379,0.79592 v 5.13996 5.13995 H 94.219733 18.805913 l 0.413821,-4.91812 z m 415.747144,-0.41522 c 0,-5.20044 0.1156,-5.33333 4.63968,-5.33333 2.55183,0 7.03659,-0.95905 9.96615,-2.13123 4.27697,-1.7113 6.00041,-3.50876 8.74708,-9.12273 2.85208,-5.82945 3.62553,-9.96288 4.65346,-24.86877 1.5839,-22.96779 1.58504,-75.43715 0.003,-98.38879 -1.80429,-26.1544 -6.40661,-33.9681 -21.02795,-35.69978 -6.49787,-0.76954 -6.98142,-1.07697 -6.98142,-4.4384 v -3.61159 l 39,-7.59147 c 21.45,-4.17531 41.28815,-7.951214 44.08477,-8.390904 l 5.08478,-0.79943 -0.26779,21.560754 c -0.14728,11.85841 0.0568,21.88539 0.45363,22.28217 0.39677,0.39678 2.71089,-3.07087 5.14248,-7.70587 5.737,-10.93568 20.80196,-26.10237 30.50213,-30.70811 14.38996,-6.832504 30.18448,-7.891324 42.74519,-2.865534 2.9732,1.18964 5.13976,2.834244 4.81457,3.654674 -0.32519,0.82042 -5.21371,13.02414 -10.86339,27.11938 l -10.27213,25.62771 -6.56592,-3.32721 c -18.14739,-9.19598 -41.09567,-9.14744 -52.71328,0.11146 l -3.81171,3.03783 -0.41782,43.60432 c -0.47284,49.34736 0.92233,72.21945 4.96246,81.35283 3.42479,7.74232 10.36819,11.2269 22.45536,11.26938 l 8.33334,0.0293 v 5.33333 5.33334 h -61.33334 -61.33333 z"
       id="path6494" />
  </g>
</svg>
