<svg width="64" height="64" version="1.1" viewBox="0 0 64 64" xmlns="http://www.w3.org/2000/svg">
 <path d="m1.629 63.578c-1.5252-0.66189-1.875-1.8971-1.478-5.2184 1.3312-11.137 8.3924-20.654 18.549-25.001 0.70668-0.30246 1.3134-0.56384 1.3481-0.58084 0.0348-0.017-0.60764-0.74237-1.4276-1.6119-1.8918-2.0061-3.4744-4.6766-4.2839-7.2289-0.90673-2.8585-0.90673-8.2643 0-11.123 1.85-5.8322 6.6906-10.485 12.787-12.292 2.3471-0.69544 7.3608-0.69544 9.7079 0 6.0959 1.8062 10.937 6.4594 12.787 12.292 0.90673 2.8585 0.90673 8.2643 0 11.123-1.7876 5.6354-6.1743 10.058-11.872 11.968-1.7472 0.58584-3.1255 0.79874-6.4622 0.99818-5.3535 0.32-7.379 0.80968-11.298 2.7314-4.6021 2.2566-7.9597 5.3704-10.597 9.8277-1.1369 1.9214-2.9653 6.7595-2.9653 7.8464 0 0.37257 3.1345 0.42439 25.672 0.42439h25.672l-0.39252-1.6807c-0.88971-3.8095-2.5375-6.9871-5.392-10.398-1.6567-1.9797-1.8741-2.3787-1.8741-3.4403 0-2.1413 2.3311-3.5992 4.2062-2.6307 1.8819 0.97202 5.1246 5.2505 6.985 9.216 2.0897 4.4541 3.2995 11.18 2.3985 13.333-0.82625 1.9752 0.86571 1.876-31.783 1.8636-24.786-0.009433-29.493-0.074482-30.286-0.41852zm34.296-33.492c5.6203-1.9315 9.2471-7.8702 8.2734-13.548-1.0568-6.1624-6.0546-10.426-12.221-10.426-6.1666 0-11.165 4.2637-12.221 10.426-0.96344 5.6181 2.6234 11.563 8.1631 13.531 2.0838 0.74003 5.8785 0.74804 8.006 0.01692z" fill="#4d4d4d" stroke-width=".28536"/>
</svg>
