<svg width="64" height="64" version="1.1" viewBox="0 0 64 64" xmlns="http://www.w3.org/2000/svg">
    <g transform="matrix(.13413 0 0 .13415 -.0003048 .03716)">
        <path d="m475.01 380.32-2.375-7.156c-5.625-16.719-24.062-34.156-41-38.75l-62.688-17.125c-17-4.625-41.25 1.594-53.688 14.031l-22.688 22.688c-82.453-22.28-147.11-86.938-169.36-169.38l22.689-22.689c12.438-12.438 18.656-36.656 14.031-53.656l-17.094-62.719c-4.625-16.969-22.094-35.406-38.781-40.969l-7.156-2.406c-16.719-5.563-40.563 0.063-53 12.5l-33.938 33.969c-6.063 6.031-9.938 23.281-9.938 23.344-1.187 107.75 41.063 211.56 117.28 287.78 76.031 76.031 179.45 118.22 286.89 117.31 0.562 0 18.312-3.813 24.375-9.845l33.938-33.938c12.437-12.436 18.062-36.279 12.5-52.998z"/>
    </g>
</svg>
