<svg width="90" height="64" version="1.1" viewBox="0 0 90 64" xmlns="http://www.w3.org/2000/svg">
 <path d="m14.251 57.797 3.91e-4 -6.2045 8.7022-24.18 6.5937-8.3843-0.11869-2.4402c-0.11808-2.4277-0.1249-2.4395-1.3234-2.3026-2.1643 0.24716-4.6231 2.1586-5.4807 4.2607l-0.78136 1.9152h-10.8c-5.9401 0-10.878-0.14695-10.974-0.32656-0.3097-0.58181 0.49106-6.3705 1.1381-8.2271 1.3941-4.0005 7.0558-8.1327 13.889-10.137 4.8999-1.4372 10.414-1.7735 29.014-1.7696 24.204 0.0050941 29.534 0.58372 35.908 3.8983 4.0299 2.0957 7.2937 5.2839 8.4863 8.2898 0.82719 2.0848 1.7277 7.295 1.3733 7.9457-0.09781 0.1796-5.0427 0.32656-10.989 0.32656h-10.811l-0.80762-1.7164c-0.44419-0.94402-1.3966-2.1905-2.1164-2.77-1.4746-1.1871-3.8299-2.1558-4.3668-1.796-0.1955 0.131-0.35493 1.2552-0.35429 2.4983 0.0012 2.1568 0.16638 2.5059 3.6142 7.635 1.9872 2.9561 3.613 5.5491 3.613 5.7622 0 0.21301 1.536 5.0621 3.4134 10.775l3.4134 10.388v12.763h-60.237zm35.539-8.9778c2.999-1.5542 5.2345-3.9345 6.5228-6.9453 0.83631-1.9544 0.96635-2.8054 0.83169-5.4426-0.26665-5.2221-2.5478-8.8625-7.0629-11.271-2.3658-1.2622-3.0712-1.4327-5.9083-1.4278-2.704 0.0046-3.5895 0.20058-5.5099 1.2193-7.4423 3.9479-9.5866 13.993-4.364 20.442 2.5962 3.206 5.6724 4.6284 10.069 4.6558 2.51 0.01564 3.4133-0.18931 5.4213-1.2299zm5.644-31.999c0.13091-0.56555 0.17953-1.6921 0.10804-2.5035-0.12475-1.4159-0.21086-1.4869-2.1379-1.7637-2.656-0.38151-15.975-0.38152-18.272-1.3e-5 -1.7724 0.29436-1.805 0.32933-1.6957 1.8182 0.06129 0.83493 0.20025 1.9589 0.30883 2.4977l0.19742 0.97967h21.253zm-53.533 10.3c-1.1492-0.23991-1.5971-1.1594-1.7608-3.6151l-0.13038-1.9554 21.871-0.2317v1.1095c0 1.6262-1.0159 3.9892-1.9475 4.5298-0.78228 0.45394-15.98 0.59136-18.032 0.16305zm67.566 1.3e-5c-1.153-0.3284-1.3924-0.92762-1.3994-3.5025l-0.0062-2.2858h10.819c5.9504 0 10.918 0.17421 11.04 0.38714 0.32334 0.56725-0.40622 4.3935-0.95042 4.9846-0.47899 0.52022-17.837 0.89102-19.503 0.41661z" fill="#666" stroke-width=".41815"/>
</svg>
