<?xml version="1.0" encoding="UTF-8" standalone="no"?>
<!-- Created with Inkscape (http://www.inkscape.org/) -->

<svg
        version="1.1"
        id="svg2"
        width="300"
        height="196"
        viewBox="0 0 300 196"
        sodipodi:docname="phone.svg"
        inkscape:version="1.1.1 (3bf5ae0d25, 2021-09-20)"
        xmlns:inkscape="http://www.inkscape.org/namespaces/inkscape"
        xmlns:sodipodi="http://sodipodi.sourceforge.net/DTD/sodipodi-0.dtd"
        xmlns="http://www.w3.org/2000/svg"
>
  <defs
     id="defs6" />
  <sodipodi:namedview
     id="namedview4"
     pagecolor="#ffffff"
     bordercolor="#666666"
     borderopacity="1.0"
     inkscape:pageshadow="2"
     inkscape:pageopacity="0.0"
     inkscape:pagecheckerboard="0"
     showgrid="false"
     inkscape:zoom="3.2142857"
     inkscape:cx="123.04444"
     inkscape:cy="99.244444"
     inkscape:window-width="1920"
     inkscape:window-height="998"
     inkscape:window-x="0"
     inkscape:window-y="0"
     inkscape:window-maximized="1"
     inkscape:current-layer="g8" />
  <g
     inkscape:groupmode="layer"
     inkscape:label="Image"
     id="g8">
    <path
       style="fill:#666666;stroke-width:1.33333"
       d="m 47.847215,177.87258 0.0013,-19 14.446505,-37.02303 14.446535,-37.023021 10.94628,-12.83756 10.946281,-12.83755 -0.394087,-7.47276 c -0.392056,-7.43426 -0.414684,-7.47058 -4.394085,-7.05143 -7.185844,0.75687 -15.34986,6.61039 -18.197167,13.0472 l -2.594285,5.86482 H 37.195575 c -19.722405,0 -36.1186356,-0.45 -36.4360686,-1 -1.028277,-1.78165 1.630453,-19.50815 3.778729,-25.19384 C 9.1670093,25.094759 27.965027,12.440699 50.652564,6.3031191 66.921515,1.9019391 85.23016,0.87201913 146.98721,0.88397913 c 80.36357,0.0156 98.06024,1.78750997 119.2222,11.93752987 13.38022,6.41762 24.2168,16.18082 28.17664,25.38571 2.74646,6.38434 5.73638,22.33947 4.55972,24.33203 -0.3248,0.55 -16.74294,1 -36.48475,1 h -35.89421 l -2.68147,-5.25609 c -1.4748,-2.89085 -4.63699,-6.70799 -7.02709,-8.48253 -4.89612,-3.63515 -12.71631,-6.6017 -14.4988,-5.50006 -0.6491,0.40116 -1.17844,3.84398 -1.17634,7.6507 0.004,6.60479 0.55243,7.674 12,23.38059 6.5979,9.05261 11.99616,16.99298 11.99616,17.64527 0,0.6523 5.1,15.501421 11.33334,32.998061 l 11.33333,31.81207 v 19.54265 19.54267 h -100 -99.999996 z M 165.84594,150.37997 c 9.95748,-4.75948 17.37975,-12.04851 21.65723,-21.26847 2.77673,-5.98511 3.2085,-8.59115 2.7614,-16.66666 -0.88535,-15.991351 -8.45944,-27.139461 -23.45054,-34.516261 -7.85513,-3.86535 -10.19694,-4.38732 -19.61696,-4.37249 -8.97778,0.0141 -11.918,0.61423 -18.29421,3.73382 -24.71001,12.08948 -31.829881,42.849651 -14.48947,62.599281 8.61993,9.81758 18.83384,14.17324 33.43255,14.25715 8.33365,0.0479 11.33308,-0.57972 18,-3.76637 z m 18.73951,-97.989561 c 0.43466,-1.73186 0.59609,-5.18186 0.35873,-7.66667 -0.41419,-4.33584 -0.70012,-4.5534 -7.09824,-5.40102 -8.81852,-1.16827 -53.04018,-1.1683 -60.66667,-4e-5 -5.88462,0.90143 -5.99288,1.0085 -5.63007,5.56783 0.20346,2.55681 0.66489,5.99874 1.0254,7.64874 l 0.65548,3 h 35.28253 35.28253 z M 6.8430211,83.931219 C 3.0274074,83.196529 1.5403524,80.380659 0.9967374,72.860789 l -0.432891,-5.98821 36.3077146,-0.35476 36.307716,-0.35477 v 3.39759 c 0,4.97992 -3.37309,12.21594 -6.466133,13.87128 -2.597368,1.39007 -53.058332,1.8109 -59.8701229,0.4993 z m 224.3362489,4e-5 c -3.82833,-1.00566 -4.62325,-2.84064 -4.64625,-10.72535 l -0.0204,-7 h 35.9213 c 19.75672,0 36.25103,0.53349 36.65402,1.18553 1.07357,1.73707 -1.34874,13.45412 -3.1556,15.26405 -1.59035,1.59306 -59.22264,2.72854 -64.75306,1.27577 z"
       id="path48" />
  </g>
</svg>
