<?xml version="1.0" encoding="UTF-8" standalone="no"?>
<!-- Created with Inkscape (http://www.inkscape.org/) -->

<svg
        version="1.1"
        id="svg2"
        width="264.95999"
        height="253.75999"
        viewBox="0 0 264.95999 253.75999"
        sodipodi:docname="social.svg"
        inkscape:version="1.1.1 (3bf5ae0d25, 2021-09-20)"
        xmlns:inkscape="http://www.inkscape.org/namespaces/inkscape"
        xmlns:sodipodi="http://sodipodi.sourceforge.net/DTD/sodipodi-0.dtd"
        xmlns="http://www.w3.org/2000/svg"
>
  <defs
     id="defs6" />
  <sodipodi:namedview
     id="namedview4"
     pagecolor="#ffffff"
     bordercolor="#666666"
     borderopacity="1.0"
     inkscape:pageshadow="2"
     inkscape:pageopacity="0.0"
     inkscape:pagecheckerboard="0"
     showgrid="false"
     inkscape:zoom="2.4826608"
     inkscape:cx="132.31771"
     inkscape:cy="126.88"
     inkscape:window-width="1920"
     inkscape:window-height="998"
     inkscape:window-x="0"
     inkscape:window-y="0"
     inkscape:window-maximized="1"
     inkscape:current-layer="g8" />
  <g
     inkscape:groupmode="layer"
     inkscape:label="Image"
     id="g8">
    <path
       style="fill:#000000;stroke-width:0.32"
       d="m 235.32661,253.49288 c -17.19447,-1.72475 -32.2767,-7.72516 -41.59374,-16.54791 l -1.65023,-1.56268 -3.25801,0.399 c -4.83334,0.59193 -19.15973,0.79071 -25.25172,0.35038 -36.47686,-2.63656 -64.909406,-18.27962 -76.432945,-42.05198 -1.029283,-2.12335 -1.816797,-3.91525 -1.750035,-3.98202 0.06676,-0.0668 1.941673,0.0342 4.166467,0.2243 2.224793,0.19012 5.045238,0.34568 6.267651,0.34568 1.222413,0 2.224409,0.108 2.226656,0.24 0.01072,0.62954 3.739156,5.8856 6.055716,8.53689 8.79058,10.06077 23.04098,18.08541 39.53526,22.26297 15.8097,4.00417 34.77014,4.86818 48.87392,2.22713 l 3.42899,-0.6421 3.93101,3.95452 c 5.69921,5.7333 11.01604,8.95656 19.32537,11.71576 7.55683,2.50933 14.94952,3.6577 23.71182,3.68339 7.06347,0.0207 7.52082,-0.18053 4.36482,-1.92053 -3.93916,-2.17177 -8.4047,-5.29402 -10.88622,-7.61149 -4.56247,-4.26084 -6.99949,-8.22951 -8.52052,-13.87561 l -0.79447,-2.94907 2.79465,-2.0729 c 12.59429,-9.34168 20.64391,-21.02515 23.53329,-34.15694 0.7015,-3.18824 0.98687,-11.83104 0.50895,-15.41423 -2.15041,-16.12245 -13.14377,-31.20511 -30.24026,-41.48898 -3.01907,-1.81603 -8.39049,-4.5214 -11.47646,-5.78023 -1.39683,-0.56979 -1.80103,-0.87641 -1.64997,-1.25162 0.45662,-1.13419 1.69267,-6.38915 1.90552,-8.10118 0.12611,-1.01433 0.34586,-1.91627 0.48833,-2.00433 0.70375,-0.43494 10.91131,4.26802 16.30616,7.51277 20.32186,12.22267 33.08805,30.05438 35.68171,49.83993 2.15972,16.47531 -3.01222,32.88624 -14.86788,47.17678 -1.72995,2.08524 -6.68939,7.08597 -8.61279,8.6845 l -1.39897,1.16267 1.14336,1.55756 c 1.45662,1.98431 3.69143,4.0708 6.13497,5.72782 1.79,1.21383 8.68348,5.22297 11.46687,6.66895 2.34045,1.21587 4.78756,3.45688 5.71646,5.23501 2.25726,4.32086 0.18497,8.68533 -5.34373,11.25452 -4.53006,2.10512 -9.48064,2.89782 -17.59161,2.81683 -2.82061,-0.0282 -5.63239,-0.10177 -6.24839,-0.16356 z M 11.420348,195.6456 c -4.3494632,-0.99011 -8.161365,-3.63004 -9.485312,-6.56906 -0.99425,-2.20712 -0.896473,-5.56462 0.217403,-7.4653 1.507889,-2.57302 3.3206,-3.83878 8.846694,-6.17736 3.768124,-1.59463 8.528437,-5.34279 11.740683,-9.24434 2.624849,-3.1881 5.304417,-8.18821 5.89538,-11.00086 l 0.361171,-1.71896 -2.854189,-2.92104 C 13.851147,137.96981 5.788942,122.99466 2.540684,106.71007 0.352851,95.741737 0.664128,82.220077 3.351761,71.477477 10.767143,41.837837 34.370562,17.532107 66.313675,6.642155 77.751136,2.742927 89.111482,0.90765703 101.81029,0.90765703 c 28.5952,0 54.44722,10.19660297 73.78554,29.10263997 14.16524,13.84859 22.70801,30.14979 25.70098,49.0423 0.82368,5.19932 0.82353,18.75216 -2.6e-4,23.935063 -2.53009,15.918 -9.39209,30.17723 -20.53936,42.68074 -10.59018,11.87866 -26.69516,22.06618 -43.67058,27.62468 -10.72697,3.51249 -20.69526,5.13926 -33.28722,5.43231 -8.875803,0.20656 -15.315748,-0.15557 -21.272772,-1.1962 -3.965277,-0.6927 -4.707139,-0.75577 -4.059667,-0.34518 0.813216,0.51569 -5.918592,4.04231 -16.260332,8.51835 -10.74312,4.64976 -20.603232,7.80108 -29.682784,9.4867 -4.600563,0.85409 -18.076414,1.14562 -21.103487,0.45654 z M 29.56662,184.23871 c 12.614748,-2.141 32.4994,-9.66693 44.924721,-17.00308 l 3.484723,-2.05744 3.063876,0.7407 c 7.014348,1.69574 21.64866,2.38176 30.44668,1.42725 10.98527,-1.1918 21.08394,-3.74015 30.10621,-7.59716 27.08606,-11.57923 45.06898,-33.39557 48.81407,-59.2198 0.71671,-4.942043 0.71867,-13.626093 0.004,-18.899943 -3.6097,-26.64934 -22.34486,-50.04121 -49.48429,-61.78416 -19.5273,-8.44927 -42.827103,-10.23147 -63.790091,-4.8793 -6.855165,1.75023 -12.281641,3.77052 -18.9299,7.04765 -21.185939,10.44317 -36.319022,27.3832 -42.829518,47.94351 -2.664814,8.41556 -3.795037,17.84865 -3.114066,25.99072 0.878898,10.508583 3.227957,18.893623 7.838154,27.978533 4.017131,7.9162 9.188797,14.70592 16.613693,21.81158 l 4.378361,4.19012 -1.098252,5.08988 c -1.539136,7.13315 -3.309594,11.16092 -7.183824,16.34308 -3.235133,4.32731 -8.188863,8.60328 -13.098962,11.3068 -1.438421,0.792 -2.617622,1.53953 -2.620447,1.66117 -0.0028,0.12164 0.606862,0.36686 1.354862,0.54494 1.766261,0.42048 6.490458,0.15069 11.12,-0.63505 z m 23.359999,-68.45105 v -5.44 h 34.239999 34.240002 v 5.44 5.44 H 87.166618 52.926619 Z m 0,-28.800003 v -5.44 h 48.640001 48.63999 v 5.44 5.44 H 101.56662 52.926619 Z m 0,-28.8 v -5.44 h 48.640001 48.63999 v 5.44 5.44 H 101.56662 52.926619 Z M 144.76661,183.35161 c 5.04044,-1.80465 10.86693,-4.3772 15.52,-6.8525 2.288,-1.21716 4.2968,-2.34316 4.464,-2.50223 0.17562,-0.16708 10.54755,-0.28923 24.56,-0.28923 h 24.256 v 5.44 5.44 l -36.08,-0.0165 -36.08,-0.0165 3.36,-1.20299 z m 43.89681,-28.47915 c 0.40875,-0.50335 1.60778,-1.90735 2.6645,-3.12 1.05671,-1.21264 2.69651,-3.24881 3.644,-4.52481 l 1.72269,-2.32 h 8.436 8.436 v 5.44 5.44 h -12.82319 -12.82319 z"
       id="path66" />
  </g>
</svg>
