<svg width="64" height="64" viewBox="0 0 64 64" fill="none" xmlns="http://www.w3.org/2000/svg">
<path d="M27.111 64.158C19.9417 62.7914 14.254 59.8461 9.383 54.9773C5.2092 50.8059 2.5493 46.2498 0.951501 40.5353C0.211181 37.8876 0.156311 37.3136 0.156311 32.2169C0.156311 27.1202 0.211182 26.5462 0.951501 23.8985C2.5494 18.1838 5.2093 13.6275 9.383 9.4565C13.5568 5.2851 18.1154 2.6266 23.833 1.0296C26.4822 0.289688 27.0565 0.234848 32.156 0.234848C37.2555 0.234848 37.8298 0.28969 40.479 1.0296C46.1969 2.6266 50.755 5.285 54.929 9.4565C59.1028 13.6279 61.7627 18.184 63.3605 23.8985C64.1008 26.5462 64.1557 27.1202 64.1557 32.2169C64.1557 37.3136 64.1008 37.8876 63.3605 40.5353C61.7626 46.25 59.1027 50.8063 54.929 54.9773C50.7953 59.1087 46.218 61.7935 40.629 63.3645C38.2571 64.0313 37.2949 64.1363 32.876 64.2106C30.1012 64.2572 27.5066 64.2335 27.1102 64.158L27.111 64.158ZM42.224 48.136C42.6159 47.5359 48.1562 22.177 48.1562 20.983C48.1562 20.2546 47.3272 19.3956 46.6243 19.3956C46.1241 19.3956 21.1803 28.8663 15.3763 31.2596C13.3944 32.0769 12.6798 32.7863 13.1204 33.4989C13.313 33.8104 21.2909 36.3949 22.0598 36.3949C22.3298 36.3949 24.6472 35.0734 27.2095 33.4582C39.0135 26.0172 41.3355 24.5817 41.5665 24.5817C42.3781 24.5817 41.0022 25.9887 34.322 31.99C25.9146 39.5429 26.7077 38.3499 26.3662 43.958C26.2254 46.2698 26.2648 47.0554 26.5215 47.0554C26.7106 47.0554 27.9543 46.0131 29.2853 44.7391L31.7053 42.4228L35.102 44.9378C39.863 48.463 40.3661 48.7842 41.1269 48.7842C41.508 48.7842 41.9846 48.5026 42.2242 48.1359L42.224 48.136Z" fill="#666666"/>
</svg>
