<?xml version="1.0" encoding="UTF-8" standalone="no"?>
<!-- Created with Inkscape (http://www.inkscape.org/) -->

<svg
        version="1.1"
        id="svg2"
        width="300"
        height="300"
        viewBox="0 0 300 300"
        sodipodi:docname="tg.svg"
        inkscape:version="1.1.1 (3bf5ae0d25, 2021-09-20)"
        xmlns:inkscape="http://www.inkscape.org/namespaces/inkscape"
        xmlns:sodipodi="http://sodipodi.sourceforge.net/DTD/sodipodi-0.dtd"
        xmlns="http://www.w3.org/2000/svg"
>
  <defs
     id="defs6" />
  <sodipodi:namedview
     id="namedview4"
     pagecolor="#ffffff"
     bordercolor="#666666"
     borderopacity="1.0"
     inkscape:pageshadow="2"
     inkscape:pageopacity="0.0"
     inkscape:pagecheckerboard="0"
     showgrid="false"
     inkscape:zoom="2.1"
     inkscape:cx="137.38095"
     inkscape:cy="146.66667"
     inkscape:window-width="1920"
     inkscape:window-height="998"
     inkscape:window-x="0"
     inkscape:window-y="0"
     inkscape:window-maximized="1"
     inkscape:current-layer="g8" />
  <g
     inkscape:groupmode="layer"
     inkscape:label="Image"
     id="g8">
    <path
       style="fill:#666666;stroke-width:1.33333"
       d="M 127.21128,296.94016 C 94.053156,290.61596 67.749011,276.98659 45.218295,254.45588 25.914668,235.15224 13.612558,214.06851 6.2223777,187.62345 c -3.42399,-12.25241 -3.67777,-14.90868 -3.67777,-38.49389 0,-23.58522 0.25378,-26.24147 3.67777,-38.4939 C 13.612558,84.190613 25.914668,63.106883 45.218295,43.803253 64.521927,24.499621 85.605659,12.197516 112.05071,4.8073388 c 12.25243,-3.423989 14.90868,-3.677773 38.4939,-3.677773 23.58521,0 26.24148,0.253784 38.49389,3.677773 26.44506,7.3901772 47.52879,19.6922822 66.83243,38.9959142 19.30363,19.30363 31.60573,40.38736 38.99591,66.832407 3.42398,12.25243 3.67777,14.90868 3.67777,38.4939 0,23.58521 -0.25379,26.24148 -3.67777,38.49389 -7.39018,26.44506 -19.69228,47.52879 -38.99591,66.83243 -19.11835,19.11833 -40.28832,31.54224 -66.13533,38.81245 -10.96988,3.08559 -15.4203,3.57152 -35.85766,3.9152 -12.83333,0.21582 -24.83333,0.10627 -26.66666,-0.24337 z m 69.89688,-74.14393 c 1.81273,-2.77691 27.43645,-120.12897 27.43645,-125.654007 0,-3.3708 -3.83395,-7.34599 -7.08499,-7.34599 -2.31354,0 -117.680716,43.826287 -144.523652,54.902407 -9.166091,3.78217 -12.471528,7.06513 -10.433571,10.36263 0.890794,1.44133 37.788723,13.40162 41.344503,13.40162 1.24887,0 11.96676,-6.11546 23.81753,-13.58993 54.59506,-34.43394 65.33337,-41.07673 66.40197,-41.07673 3.75372,0 -2.6099,6.51113 -33.50572,34.28246 -38.88411,34.95176 -35.21631,29.43106 -36.79569,55.3842 -0.65103,10.69811 -0.46892,14.33334 0.71802,14.33334 0.87465,0 6.62691,-4.82351 12.7828,-10.7189 l 11.19253,-10.7189 15.7098,11.63849 c 22.0196,16.31307 24.34634,17.79931 27.86512,17.79931 1.76283,0 3.96719,-1.3031 5.0749,-3 z"
       id="path48" />
  </g>
</svg>
