<svg width="32" height="32" version="1.1" viewBox="0 0 32 32" xmlns="http://www.w3.org/2000/svg">
 <path d="m8.7454 32.061c-0.29115-0.1123-0.48604-0.29587-0.64873-0.61104l-0.16176-0.31338-0.05071-3.8883-0.22817-0.057359c-0.42326-0.1064-1.1886-0.39131-1.7048-0.63465-2.588-1.2199-4.2626-3.2502-5.1195-6.207-0.54625-1.8847-0.74814-4.1804-0.63783-7.2528 0.080322-2.2372 0.25403-3.5897 0.64127-4.993 0.61834-2.2408 1.8258-4.1407 3.2969-5.1876 2.272-1.6167 5.6483-2.5487 10.046-2.7729 1.9624-0.10004 5.1909 0.027313 6.89 0.27179 3.7695 0.5424 6.8178 1.8477 8.2815 3.5462 1.558 1.8079 2.4423 4.2881 2.755 7.7271 0.0812 0.89291 0.08101 3.5329-3.04e-4 4.5917-0.14787 1.9249-0.35916 3.3429-0.64672 4.3403-0.99257 3.4424-3.3117 5.6764-6.8908 6.6376-0.90831 0.24394-1.7798 0.44744-2.3831 0.55645-2.227 0.4024-5.1289 0.58197-7.5297 0.46594l-1.1409-0.05514-0.17747 0.18481c-0.36507 0.38017-0.85506 0.9069-1.0383 1.1162-0.10421 0.119-0.40016 0.43272-0.65766 0.69716-0.2575 0.26444-0.64018 0.66536-0.85039 0.89092-0.6699 0.71883-1.0748 0.97266-1.5847 0.9935-0.1681 0.0069-0.37445-0.01405-0.45855-0.04648zm0.57902-1.0182c0.19786-0.09702 0.86083-0.78281 2.5181-2.6048 0.22095-0.2429 1.4543-1.633 1.9995-2.2537l0.17747-0.20203 1.2676 0.02272c1.8065 0.03238 3.6296-0.08128 5.2697-0.32854 1.909-0.28779 3.8403-0.78995 4.7941-1.2465 2.0446-0.97869 3.4427-2.8754 3.9799-5.399 0.3416-1.605 0.5399-4.464 0.43594-6.285-0.207-3.626-1.0698-6.1109-2.6515-7.6368-1.5037-1.4507-4.8215-2.4528-8.9379-2.6995-1.2401-0.074332-3.7993-0.061099-4.8105 0.024873-2.7255 0.23173-5.0198 0.82223-6.6277 1.7058-1.8513 1.0173-3.0134 2.6208-3.6408 5.0237-0.16614 0.63631-0.33766 1.582-0.38806 2.1396-0.017929 0.19833-0.041567 0.41469-0.052531 0.4808-0.054981 0.33152-0.12615 3.2587-0.097611 4.0147 0.13454 3.5636 0.93969 5.83 2.6446 7.4444 0.84908 0.80397 1.7687 1.3362 3.0456 1.7625l0.54652 0.18248v2.8319c0 2.6301 0.00641 2.8412 0.089903 2.9621 0.10079 0.14592 0.22758 0.16344 0.43762 0.06044zm10.957-8.3861c-1.5093-0.5299-3.4533-1.492-5.0406-2.4947-1.7321-1.0941-2.976-2.1769-4.3219-3.762-0.31834-0.37491-0.3374-0.40042-0.88324-1.1821-1.2535-1.795-2.5823-4.3325-2.7952-5.3375-0.18437-0.87052 0.61394-1.9858 2.0102-2.8083 0.67071-0.3951 1.1894-0.42373 1.6173-0.089272 0.46151 0.36072 1.8808 2.1752 2.3654 3.0241 0.16343 0.28626 0.17742 0.34319 0.17686 0.71954-8.5e-4 0.57048-0.08825 0.71027-0.7585 1.2132-0.82942 0.62233-0.93744 0.92222-0.61627 1.7108 0.84134 2.0657 2.4191 3.6906 4.3222 4.4515 0.55282 0.221 1.1266 0.36911 1.3124 0.33877 0.43711-0.07137 0.53616-0.14523 1.1171-0.8331 0.35982-0.42603 0.5654-0.56344 0.9536-0.63737 0.2447-0.0466 0.3415-0.04281 0.59178 0.02317 0.5048 0.13308 1.6169 0.80066 2.6869 1.6129 1.042 0.791 1.1986 0.99808 1.1569 1.5303-0.02623 0.33451-0.18016 0.64075-0.58067 1.1552-0.46905 0.60248-1.0063 1.0692-1.5093 1.311-0.39132 0.18815-0.47681 0.21067-0.8537 0.22495-0.3833 0.01453-0.46401 1e-5 -0.95124-0.17106zm3.9297-7.7445c-0.22109-0.0859-0.26461-0.19748-0.30105-0.77195-0.07148-1.1268-0.18996-1.7613-0.48764-2.6117-0.9889-2.8249-3.7134-4.7241-6.9941-4.8753-0.60474-0.02788-0.63964-0.035185-0.77325-0.16188-0.18381-0.1743-0.18108-0.34887 0.0083-0.52843 0.16981-0.16102 0.19676-0.16323 1.0941-0.089672 0.73624 0.060353 1.4442 0.19176 2.0982 0.38942 1.8431 0.55711 3.5378 1.8116 4.569 3.3821 0.80509 1.2261 1.3148 3.0159 1.318 4.6277 7.5e-4 0.38131-0.01358 0.45846-0.10053 0.5409-0.05578 0.05289-0.12236 0.09616-0.14797 0.09616-0.0256 0-0.07695 0.0095-0.11409 0.02103-0.03714 0.01157-0.11316 0.0033-0.16894-0.01836zm-2.3933-0.92821c-0.08675-0.09036-0.11276-0.21511-0.15793-0.75726-0.02974-0.357-0.10131-0.82217-0.15903-1.0337-0.1271-0.46585-0.43571-1.0917-0.73341-1.4873-0.24468-0.32514-0.85576-0.89491-1.1998-1.1187-0.67535-0.4393-1.6652-0.74247-2.7606-0.84552-0.11214-0.01055-0.25423-0.044725-0.31575-0.07594-0.24575-0.12472-0.28669-0.42422-0.08422-0.61621 0.12673-0.12017 0.14595-0.12341 0.54508-0.091879 2.2032 0.17406 3.9973 1.2416 4.8962 2.9133 0.42212 0.78508 0.60436 1.4545 0.64992 2.3874 0.02838 0.5811 0.02781 0.58507-0.10308 0.70918-0.17052 0.16169-0.43089 0.16919-0.57735 0.01663zm-2.1995-0.70548c-0.11163-0.10585-0.14843-0.18596-0.1491-0.32454-0.0014-0.29353-0.13221-0.80067-0.27582-1.0694-0.2667-0.49907-0.78062-0.8242-1.4536-0.91966-0.5669-0.08041-0.5916-0.08744-0.70209-0.1999-0.20913-0.21285-0.08623-0.56924 0.22156-0.64249 0.17458-0.04155 0.80115 0.05843 1.209 0.19292 0.8845 0.29167 1.4647 0.90756 1.7057 1.8108 0.05216 0.19542 0.1109 0.5013 0.13053 0.67974 0.03477 0.31609 0.03178 0.32813-0.11655 0.46878-0.19647 0.1863-0.37587 0.1875-0.56958 0.0038z" style="fill:#666;stroke-width:.049375"/>
</svg>
