<?xml version="1.0" encoding="UTF-8" standalone="no"?>
<!-- Created with Inkscape (http://www.inkscape.org/) -->

<svg
        version="1.1"
        id="svg2"
        width="632"
        height="666"
        viewBox="0 0 632 666"
        sodipodi:docname="viber.svg"
        inkscape:version="1.1.1 (3bf5ae0d25, 2021-09-20)"
        xmlns:inkscape="http://www.inkscape.org/namespaces/inkscape"
        xmlns:sodipodi="http://sodipodi.sourceforge.net/DTD/sodipodi-0.dtd"
        xmlns="http://www.w3.org/2000/svg"
>
  <defs
     id="defs6" />
  <sodipodi:namedview
     id="namedview4"
     pagecolor="#ffffff"
     bordercolor="#666666"
     borderopacity="1.0"
     inkscape:pageshadow="2"
     inkscape:pageopacity="0.0"
     inkscape:pagecheckerboard="0"
     showgrid="false"
     inkscape:zoom="0.94594595"
     inkscape:cx="202.44286"
     inkscape:cy="337.22857"
     inkscape:window-width="1920"
     inkscape:window-height="998"
     inkscape:window-x="0"
     inkscape:window-y="0"
     inkscape:window-maximized="1"
     inkscape:current-layer="g8" />
  <g
     inkscape:groupmode="layer"
     inkscape:label="Image"
     id="g8">
    <path
       style="fill:#666666"
       d="m 170.06617,664.6699 c -5.74197,-2.33566 -9.58561,-6.15368 -12.79418,-12.70888 l -3.19025,-6.51776 -0.5,-40.43564 -0.5,-40.43563 -4.5,-1.19298 c -8.34757,-2.21299 -23.44143,-8.13867 -33.62258,-13.19984 C 63.919446,524.80674 30.893566,482.57971 13.992826,421.08321 3.2197661,381.88344 -0.76188385,334.13623 1.4135861,270.23541 2.9976861,223.70534 6.4234661,195.57549 14.060586,166.38815 26.255456,119.78208 50.068836,80.266834 79.081736,58.493886 123.88924,24.867761 190.47645,5.4841815 277.19884,0.82186645 315.9018,-1.2588585 379.57317,1.3899435 413.08174,6.4747485 487.42416,17.755946 547.54155,44.903978 576.40748,80.22999 c 30.72603,37.60241 48.16572,89.18739 54.33342,160.71327 1.6014,18.57124 1.59773,73.47837 -0.006,95.5 -2.91635,40.03614 -7.08327,69.52765 -12.75462,90.27131 -19.57534,71.59777 -65.31301,118.06054 -135.89854,138.05261 -17.91361,5.0737 -35.10154,9.30611 -47,11.57342 -43.92106,8.36937 -101.15234,12.10424 -148.5,9.69102 l -22.5,-1.14679 -3.5,3.84382 c -7.1998,7.90706 -16.86333,18.86225 -20.47752,23.21461 -2.05523,2.475 -7.89185,9 -12.97028,14.5 -5.07842,5.5 -12.62549,13.83846 -16.77126,18.5299 -13.21164,14.9506 -21.19646,20.2299 -31.25308,20.6635 -3.31532,0.14294 -7.38487,-0.2921 -9.04343,-0.96676 z m 11.41925,-21.17683 c 3.90208,-2.01784 16.97714,-16.28132 49.66238,-54.17627 4.35754,-5.05209 28.68069,-33.96448 39.43394,-46.87426 l 3.5,-4.20192 25,0.47256 c 35.62822,0.67345 71.58226,-1.69051 103.9288,-6.83326 37.64847,-5.9857 75.73844,-16.42991 94.54789,-25.92489 40.32387,-20.35543 67.89733,-59.80358 78.49016,-112.29247 6.73693,-33.38237 10.64777,-92.84412 8.59751,-130.7193 C 580.56374,187.52845 563.54823,135.8453 532.35302,104.1075 502.69636,73.935009 437.26393,53.09354 356.08174,47.961752 331.62495,46.415759 281.15259,46.690975 261.21037,48.479068 207.45879,53.298631 162.21094,65.580214 130.49973,83.957741 93.988226,105.11717 71.070116,138.46695 58.696846,188.44326 c -3.2766,13.23432 -6.65923,32.90259 -7.65331,44.5 -0.35358,4.125 -0.81979,8.625 -1.03601,10 -1.08432,6.89525 -2.48794,67.77711 -1.92507,83.5 2.65335,74.11742 18.53237,121.25645 52.155974,154.83214 16.74534,16.72149 34.88256,27.79086 60.06497,36.65839 l 10.77834,3.7954 v 58.89974 c 0,54.70212 0.12636,59.09269 1.77305,61.60704 1.98768,3.03501 4.48822,3.39922 8.63063,1.2571 z M 397.58174,469.07309 c -29.76593,-11.02118 -68.10599,-31.03252 -99.41011,-51.88645 -34.16025,-22.75661 -58.69308,-45.2769 -85.23567,-78.24338 -6.27821,-7.79768 -6.65412,-8.32823 -17.41916,-24.58562 -24.72151,-37.33444 -50.92843,-90.10968 -55.12642,-111.01304 -3.63613,-18.10563 12.10805,-41.30132 39.64472,-58.40803 13.22763,-8.21745 23.4571,-8.81293 31.89617,-1.85673 9.10178,7.50246 37.0922,45.24146 46.65047,62.89803 3.22311,5.9539 3.49905,7.13785 3.488,14.96539 -0.0168,11.86529 -1.74038,14.77267 -14.95896,25.23239 -16.35761,12.9436 -18.48813,19.18096 -12.15394,35.58226 16.59275,42.96408 47.70841,76.76005 85.24129,92.58398 10.90258,4.59655 22.21875,7.677 25.88361,7.04596 8.62071,-1.48438 10.57404,-3.02062 22.03166,-17.32738 7.09622,-8.86081 11.15082,-11.71877 18.8068,-13.25631 4.82587,-0.96918 6.73509,-0.89033 11.67109,0.482 9.95561,2.76791 31.8888,16.65259 52.99045,33.54531 20.55063,16.45161 23.63819,20.75874 22.81535,31.8273 -0.51723,6.95743 -3.55304,13.32664 -11.45194,24.02646 -9.25053,12.53073 -19.84662,22.23701 -29.7665,27.26685 -7.71757,3.91318 -9.40354,4.38169 -16.83665,4.6787 -7.5594,0.30205 -9.15115,2e-4 -18.76026,-3.55769 z m 77.5,-161.07433 c -4.36035,-1.78652 -5.21855,-4.10727 -5.93726,-16.0555 -1.4097,-23.43568 -3.74635,-36.63356 -9.6172,-54.31984 -19.50294,-58.75375 -73.23611,-98.25417 -137.93579,-101.39959 -11.9266,-0.57982 -12.61479,-0.73177 -15.25,-3.36697 -3.62509,-3.6251 -3.57114,-7.25606 0.16333,-10.99052 3.34894,-3.34894 3.88053,-3.39489 21.57692,-1.86506 14.51993,1.25524 28.48295,3.98828 41.37961,8.09942 36.34912,11.58719 69.77211,37.67832 90.1095,70.34256 15.87794,25.50184 25.93076,62.72581 25.99356,96.25 0.0149,7.93069 -0.26793,9.53526 -1.98267,11.25 -1.1,1.1 -2.4132,2 -2.91821,2 -0.50502,0 -1.51752,0.19686 -2.25,0.43747 -0.73249,0.24061 -2.23179,0.0687 -3.33179,-0.38197 z m -47.19954,-19.3055 c -1.71077,-1.87935 -2.22387,-4.47392 -3.11472,-15.75 -0.58661,-7.425 -1.99794,-17.1 -3.1363,-21.5 -2.50673,-9.689 -8.59307,-22.70509 -14.46419,-30.93274 -4.82554,-6.76239 -16.8772,-18.61279 -23.66274,-23.26758 -13.31911,-9.13674 -32.841,-15.44238 -54.44375,-17.58552 -2.21168,-0.21941 -5.01387,-0.93017 -6.22708,-1.57946 -4.84673,-2.5939 -5.65402,-8.82327 -1.66093,-12.81636 2.49942,-2.49941 2.87842,-2.56679 10.75,-1.91095 43.45108,3.62024 78.83462,25.82355 96.56135,60.59261 8.32501,16.32862 11.91909,30.25163 12.81769,49.65411 0.55975,12.08612 0.54838,12.16863 -2.03299,14.75 -3.363,3.363 -8.49788,3.51898 -11.38634,0.34589 z m -43.37738,-14.67308 c -2.20163,-2.20162 -2.92737,-3.86761 -2.94044,-6.75 -0.0277,-6.10497 -2.60739,-16.6529 -5.43978,-22.24234 -5.25992,-10.37995 -15.39517,-17.14216 -28.66868,-19.12768 -11.18037,-1.67241 -11.6675,-1.81868 -13.8465,-4.15757 -4.12439,-4.42701 -1.70058,-11.83939 4.3696,-13.3629 3.44306,-0.86416 15.80013,1.21532 23.84301,4.01236 17.44393,6.0664 28.88591,18.87601 33.64025,37.6612 1.02869,4.06451 2.18709,10.42642 2.57424,14.1376 0.6858,6.5742 0.62674,6.82473 -2.29852,9.75 -3.87468,3.87468 -7.41285,3.89967 -11.23318,0.0793 z"
       id="path138" />
  </g>
</svg>
