<svg width="32" height="32" version="1.1" viewBox="0 0 32 32" xmlns="http://www.w3.org/2000/svg">
 <path d="m12.631 31.626c-6.1011-1.3241-10.93-6.1982-12.235-12.349-0.78112-3.6828-0.42513-6.6468 1.2286-10.229 1.262-2.7338 4.5048-6.0864 7.0819-7.3214 7.6133-3.6486 16.192-1.3773 20.753 5.495 1.5607 2.3512 2.3303 4.781 2.5094 7.923 0.272 4.7713-1.2627 8.7614-4.6771 12.16-3.9163 3.8983-9.2995 5.4849-14.661 4.3212zm-4.4174-6.0011 2.4954-0.76041 1.8141 0.61053c6.4305 2.1642 13.011-2.0938 13.721-8.878 0.13321-1.2733 0.04037-2.2995-0.32007-3.5382-0.60644-2.0841-1.0768-2.8885-2.6949-4.6087-4.9476-5.2598-13.656-3.7426-16.899 2.944-1.0747 2.2162-1.1475 5.9921-0.15734 8.1692l0.64628 1.4211-0.88202 2.6069c-0.48511 1.4338-0.88202 2.649-0.88202 2.7005 0 0.21972 0.81216 0.04828 3.1587-0.66676zm6.2466-1.6361c-0.68531-0.10118-1.7893-0.42872-2.4534-0.72788-1.1207-0.50486-1.3059-0.51038-2.5795-0.07685-0.75466 0.25689-1.3721 0.42478-1.3721 0.37308 0-0.0517 0.20729-0.68095 0.46064-1.3983 0.44476-1.2594 0.43316-1.3655-0.33666-3.0793-0.69215-1.5408-0.7789-2.0614-0.65775-3.9473 0.53999-8.4062 11.432-10.864 15.723-3.5475 0.94728 1.6149 1.2751 4.5497 0.72679 6.5063-1.101 3.9286-5.2833 6.5219-9.5114 5.8977zm5.5751-3.4375c1.6421-0.84838 1.6239-1.9855-0.04773-2.9814l-1.2693-0.75622-1.6627 1.5914-1.2603-0.88495c-0.69319-0.48672-1.5189-1.3272-1.8348-1.8677-0.55419-0.948-0.55536-1.0038-0.03306-1.5804 0.48196-0.53205 0.4981-0.71995 0.14693-1.7109-0.21697-0.61226-0.52889-1.2818-0.69316-1.4879-0.76242-0.95649-2.4188 0.10111-2.7879 1.7801-0.4397 2 2.7668 6.2758 5.7131 7.6183 1.778 0.81017 2.5849 0.87067 3.729 0.27958z" style="fill:#666;stroke-width:.29989"/>
</svg>
