<?xml version="1.0" encoding="UTF-8" standalone="no"?>
<!-- Created with Inkscape (http://www.inkscape.org/) -->

<svg
        version="1.1"
        id="svg2"
        width="144"
        height="144"
        viewBox="0 0 144 144"
        sodipodi:docname="whatsapp.svg"
        inkscape:version="1.1.1 (3bf5ae0d25, 2021-09-20)"
        xmlns:inkscape="http://www.inkscape.org/namespaces/inkscape"
        xmlns:sodipodi="http://sodipodi.sourceforge.net/DTD/sodipodi-0.dtd"
        xmlns="http://www.w3.org/2000/svg"
>
  <defs
     id="defs6" />
  <sodipodi:namedview
     id="namedview4"
     pagecolor="#ffffff"
     bordercolor="#666666"
     borderopacity="1.0"
     inkscape:pageshadow="2"
     inkscape:pageopacity="0.0"
     inkscape:pagecheckerboard="0"
     showgrid="false"
     inkscape:zoom="4.375"
     inkscape:cx="76"
     inkscape:cy="72"
     inkscape:window-width="1920"
     inkscape:window-height="998"
     inkscape:window-x="0"
     inkscape:window-y="0"
     inkscape:window-maximized="1"
     inkscape:current-layer="g8" />
  <g
     inkscape:groupmode="layer"
     inkscape:label="Image"
     id="g8">
    <path
       style="fill:#666666;stroke-width:1.33333"
       d="M 57.182795,142.26402 C 30.070271,136.3743 8.6096862,114.69326 2.8125962,87.335292 -0.65861378,70.95376 0.92334623,57.769468 8.2721862,41.834258 13.880276,29.673684 28.291216,14.761135 39.743411,9.267589 73.576197,-6.9617824 111.697,3.1413252 131.96894,33.71 c 6.93561,10.458423 10.35547,21.266456 11.15149,35.242814 1.20876,21.223324 -5.61134,38.972116 -20.78433,54.089656 -17.40368,17.3401 -41.325883,24.39763 -65.153305,19.22155 z m -19.63044,-26.69363 11.089193,-3.38241 8.061565,2.71575 C 85.279688,124.53048 114.5236,105.59033 117.67777,75.412814 118.26975,69.749063 117.8572,65.184188 116.2554,59.67418 113.56046,50.403904 111.47007,46.825604 104.27947,39.173899 82.292988,15.777522 43.592184,22.52617 29.181866,52.269424 c -4.77607,9.857918 -5.09925,26.653607 -0.6992,36.337791 l 2.872002,6.321069 -3.919602,11.595706 c -2.15578,6.37765 -3.9196,11.78316 -3.9196,12.01227 0,0.97737 3.60917,0.21478 14.036889,-2.96587 z m 27.759298,-7.27751 c -3.04543,-0.45005 -7.95157,-1.90702 -10.902532,-3.23772 -4.980106,-2.24571 -5.803232,-2.27026 -11.462853,-0.34183 -3.353607,1.14269 -6.097468,1.88947 -6.097468,1.65952 0,-0.22996 0.921164,-3.02896 2.047032,-6.22001 1.97648,-5.601937 1.924916,-6.074012 -1.496093,-13.697036 -3.075844,-6.853893 -3.46134,-9.169524 -2.922992,-17.558118 2.399674,-37.392046 50.801085,-48.322907 69.872583,-15.779862 4.20961,7.183159 5.6665,20.237895 3.22978,28.941007 C 102.6864,99.533864 84.100633,111.06945 65.311653,108.29288 Z M 90.086772,93.002127 c 7.297536,-3.773703 7.216631,-8.831971 -0.21212,-13.261944 l -5.640813,-3.363776 -3.694419,3.539479 -3.694419,3.539477 -5.600813,-3.936399 c -3.080447,-2.16502 -6.749635,-5.903453 -8.153749,-8.30763 -2.462775,-4.216854 -2.467963,-4.465127 -0.14691,-7.029862 2.141796,-2.366657 2.213504,-3.202429 0.652958,-7.610312 -0.96419,-2.723424 -2.350327,-5.70168 -3.080306,-6.618346 -3.388126,-4.254622 -10.748949,0.44976 -12.389277,7.918121 -1.953959,8.896317 12.295381,27.915731 25.388563,33.887575 7.90123,3.603777 11.486893,3.872869 16.571305,1.243617 z"
       id="path102" />
  </g>
</svg>
