<svg width="32" height="32" version="1.1" viewBox="0 0 32 32" xmlns="http://www.w3.org/2000/svg">
 <path d="m0.81451 31.788c-0.76259-0.33094-0.9375-0.94853-0.73899-2.6092 0.66562-5.5683 4.1962-10.327 9.2745-12.5 0.35334-0.15123 0.65668-0.28192 0.67407-0.29042 0.0174-0.0085-0.30382-0.37119-0.71382-0.80597-0.94589-1.0031-1.7372-2.3383-2.142-3.6144-0.45337-1.4292-0.45337-4.1322 0-5.5614 0.92501-2.9161 3.3453-5.2427 6.3933-6.1458 1.1736-0.34772 3.6805-0.34772 4.854 0 3.048 0.90311 5.4683 3.2297 6.3933 6.1458 0.45337 1.4292 0.45337 4.1322 0 5.5614-0.8938 2.8177-3.0872 5.0288-5.9361 5.984-0.87359 0.29292-1.5628 0.39937-3.2312 0.49909-2.6768 0.16-3.6896 0.40484-5.6492 1.3657-2.3011 1.1283-3.9799 2.6852-5.2987 4.9139-0.56846 0.96069-1.4827 3.3797-1.4827 3.9232 0 0.18628 1.5673 0.2122 12.836 0.2122h12.836l-0.19627-0.84035c-0.44486-1.9047-1.2688-3.4936-2.696-5.1991-0.82837-0.98986-0.93704-1.1893-0.93704-1.7202 0-1.0707 1.1655-1.7996 2.1031-1.3153 0.94093 0.48601 2.5623 2.6253 3.4926 4.608 1.0448 2.2271 1.6497 5.5898 1.1992 6.6667-0.41313 0.98762 0.43286 0.93801-15.892 0.9318-12.393-0.004717-14.747-0.037241-15.143-0.20926zm17.148-16.746c2.8102-0.96573 4.6236-3.9351 4.1368-6.7739-0.5284-3.0812-3.0274-5.2131-6.1107-5.2131s-5.5823 2.1319-6.1107 5.2131c-0.48173 2.8091 1.3117 5.7817 4.0816 6.7654 1.0419 0.37001 2.9393 0.37402 4.0031 0.0085z" style="fill:#4d4d4d;stroke-width:.14268"/>
</svg>
