<svg width="45" height="32" version="1.1" viewBox="0 0 45 32" xmlns="http://www.w3.org/2000/svg">
 <path d="m7.1254 28.898 1.955e-4 -3.1022 2.1755-6.0449 2.1755-6.0449 3.2968-4.1921-0.05934-1.2201c-0.05904-1.2138-0.06245-1.2198-0.66171-1.1513-1.0821 0.12358-2.3116 1.0793-2.7403 2.1303l-0.39068 0.95758h-5.4001c-2.97 0-5.4392-0.07347-5.487-0.16327-0.15485-0.2909 0.24553-3.1852 0.56905-4.1135 0.69706-2.0002 3.5279-4.0663 6.9444-5.0684 2.45-0.7186 5.2071-0.88676 14.507-0.88481 12.102 0.002547 14.767 0.29186 17.954 1.9491 2.015 1.0478 3.6469 2.6419 4.2432 4.1448 0.41359 1.0424 0.86385 3.6475 0.68666 3.9728-0.04891 0.0898-2.5214 0.16327-5.4943 0.16327h-5.4054l-0.40381-0.85819c-0.22209-0.472-0.69829-1.0952-1.0582-1.385-0.73732-0.59353-1.915-1.0779-2.1834-0.89802-0.09775 0.065499-0.17746 0.62762-0.17715 1.2492 6e-4 1.0784 0.08319 1.253 1.8071 3.8175 0.99359 1.4781 1.8065 2.7745 1.8065 2.881 0 0.1065 0.76802 2.531 1.7067 5.3877l1.7067 5.1941v6.3816h-30.118zm17.77-4.4888c1.4995-0.7771 2.6172-1.9672 3.2614-3.4726 0.41815-0.97722 0.48318-1.4027 0.41584-2.7212-0.13333-2.611-1.2739-4.4312-3.5315-5.6356-1.1829-0.63111-1.5356-0.71634-2.9542-0.71392-1.352 0.0023-1.7948 0.10029-2.755 0.60964-3.7211 1.9739-4.7933 6.9963-2.182 10.221 1.2981 1.603 2.8362 2.3141 5.0347 2.3278 1.255 0.0078 1.7067-0.09465 2.7107-0.61495zm2.822-15.999c0.06545-0.28277 0.08977-0.84607 0.05402-1.2518-0.06237-0.70793-0.10543-0.74346-1.0689-0.88185-1.328-0.19075-7.9874-0.19075-9.1359-6.5e-6 -0.88618 0.14718-0.90248 0.16466-0.84784 0.90909 0.03064 0.41746 0.10013 0.97944 0.15442 1.2488l0.09871 0.48982h10.627zm-26.767 5.1498c-0.5746-0.11996-0.79854-0.57972-0.8804-1.8075l-0.06519-0.97772 10.935-0.11584v0.55474c0 0.8131-0.50796 1.9946-0.97375 2.2648-0.39114 0.22696-7.9902 0.29567-9.016 0.08152zm33.783 7e-6c-0.57652-0.1642-0.69622-0.4638-0.69969-1.7512l-0.0031-1.1429h5.4095c2.9752 0 5.4591 0.08711 5.5198 0.19357 0.16167 0.28362-0.20311 2.1967-0.47521 2.4922-0.23949 0.26011-8.9184 0.4455-9.7513 0.2083z" style="fill:#666;stroke-width:.20907"/>
</svg>
