<svg width="64" height="64" version="1.1" viewBox="0 0 64 64" xmlns="http://www.w3.org/2000/svg">
 <path d="m56.873 64.076c-4.1634-0.43672-7.8153-1.9561-10.071-4.1901l-0.39958-0.39569-0.78888 0.10103c-1.1703 0.14988-4.6392 0.20022-6.1143 0.08872-8.8323-0.6676-15.717-4.6286-18.507-10.648-0.24922-0.53766-0.43991-0.99138-0.42374-1.0083 0.01616-0.01692 0.47015 0.0087 1.0088 0.0568 0.5387 0.04814 1.2216 0.08753 1.5176 0.08753s0.53861 0.02735 0.53915 0.06077c0.0026 0.15941 0.90538 1.4903 1.4663 2.1616 2.1285 2.5475 5.579 4.5794 9.5729 5.6372 3.8281 1.0139 8.4191 1.2327 11.834 0.56393l0.83028-0.16258 0.95184 1.0013c1.38 1.4517 2.6674 2.2679 4.6793 2.9666 1.8298 0.63539 3.6198 0.92616 5.7415 0.93267 1.7103 0.0052 1.8211-0.04571 1.0569-0.4863-0.95381-0.54992-2.0351-1.3405-2.6359-1.9273-1.1047-1.0789-1.6948-2.0838-2.0631-3.5134l-0.19237-0.74674 0.67668-0.52488c3.0495-2.3654 4.9986-5.3238 5.6982-8.6489 0.16986-0.8073 0.23896-2.9957 0.12324-3.903-0.52069-4.0824-3.1826-7.9015-7.3222-10.505-0.73102-0.45984-2.0316-1.1449-2.7789-1.4636-0.33822-0.14428-0.43609-0.22192-0.39952-0.31692 0.11056-0.28719 0.40985-1.6178 0.46139-2.0513 0.03054-0.25684 0.08374-0.48522 0.11824-0.50752 0.1704-0.11013 2.642 1.0807 3.9483 1.9023 4.9206 3.0949 8.0118 7.6101 8.6398 12.62 0.52294 4.1717-0.72936 8.3271-3.6 11.946-0.41888 0.528-1.6197 1.7942-2.0855 2.199l-0.33874 0.2944 0.27685 0.39439c0.3527 0.50245 0.89382 1.0308 1.4855 1.4503 0.43342 0.30735 2.1026 1.3225 2.7765 1.6886 0.5667 0.30787 1.1592 0.87532 1.3842 1.3256 0.54656 1.0941 0.04479 2.1992-1.2939 2.8498-1.0969 0.53304-2.2956 0.73376-4.2595 0.71325-0.68297-0.0071-1.3638-0.02577-1.513-0.04141zm-54.216-14.648c-1.0532-0.25071-1.9762-0.91916-2.2967-1.6634-0.24074-0.55887-0.21707-1.409 0.052641-1.8903 0.36511-0.65152 0.80403-0.97202 2.1421-1.5642 0.91239-0.40377 2.065-1.3528 2.8428-2.3408 0.63557-0.80726 1.2844-2.0733 1.4275-2.7855l0.087452-0.43526-0.6911-0.73964c-2.9761-3.1851-4.9282-6.977-5.7147-11.1-0.52975-2.7773-0.45438-6.2011 0.19639-8.9213 1.7955-7.5051 7.5107-13.66 15.245-16.417 2.7694-0.98732 5.5201-1.452 8.595-1.452 6.9239 0 13.184 2.5819 17.866 7.3691 3.4299 3.5066 5.4984 7.6342 6.2231 12.418 0.19944 1.3165 0.1994 4.7482-6.3e-5 6.0606-0.61262 4.0306-2.2742 7.6412-4.9733 10.807-2.5643 3.0078-6.4638 5.5874-10.574 6.9949-2.5974 0.8894-5.011 1.3013-8.06 1.3755-2.1491 0.0523-3.7085-0.03939-5.1509-0.30289-0.96013-0.1754-1.1398-0.19137-0.98299-0.0874 0.19691 0.13058-1.4331 1.0236-3.9372 2.1569-2.6013 1.1774-4.9888 1.9753-7.1872 2.4021-1.114 0.21626-4.3769 0.29008-5.1099 0.1156zm4.3938-2.8883c3.0545-0.54212 7.8692-2.4478 10.878-4.3054l0.84377-0.52096 0.74187 0.18755c1.6984 0.42938 5.2419 0.60309 7.3722 0.3614 2.6599-0.30178 5.1052-0.94705 7.2898-1.9237 6.5585-2.932 10.913-8.4561 11.82-14.995 0.17354-1.2514 0.17402-3.4503 9.69e-4 -4.7857-0.87404-6.7479-5.4105-12.671-11.982-15.644-4.7282-2.1394-10.37-2.5907-15.446-1.2355-1.6599 0.44318-2.9738 0.95473-4.5836 1.7845-5.1299 2.6443-8.7941 6.9337-10.371 12.14-0.64524 2.1309-0.91891 4.5195-0.75402 6.5811 0.21281 2.6609 0.7816 4.7841 1.8979 7.0845 0.97269 2.0045 2.2249 3.7237 4.0228 5.5229l1.0602 1.061-0.26592 1.2888c-0.37268 1.8062-0.80137 2.8261-1.7395 4.1382-0.78334 1.0957-1.9828 2.1784-3.1717 2.863-0.34829 0.20054-0.63382 0.38982-0.6345 0.42062-6.78e-4 0.0308 0.14694 0.09289 0.32806 0.13799 0.42767 0.10647 1.5716 0.03816 2.6925-0.1608zm5.6563-17.333v-1.3775h16.581v2.7549h-16.581zm0-7.2925v-1.3775h23.555v2.7549h-23.555zm0-7.2925v-1.3775h23.555v2.7549h-23.555zm22.238 31.693c1.2205-0.45696 2.6313-1.1084 3.7579-1.7351 0.554-0.3082 1.0404-0.59331 1.0809-0.63359 0.04252-0.0423 2.5539-0.07323 5.9468-0.07323h5.8732v2.7549l-17.472-0.0084 0.81357-0.30461zm10.629-7.2112c0.09897-0.12745 0.3893-0.48296 0.64517-0.79002 0.25587-0.30705 0.65292-0.82263 0.88234-1.1457l0.41712-0.58745h4.0853v2.7549h-6.2099z" stroke-width=".079236"/>
</svg>
