<svg width="32" height="32" version="1.1" viewBox="0 0 32 32" xmlns="http://www.w3.org/2000/svg">
 <path d="m28.358 31.979c-2.0817-0.21836-3.9077-0.97805-5.0356-2.0951l-0.19979-0.19784-0.39444 0.05051c-0.58516 0.07494-2.3196 0.10011-3.0572 0.04436-4.4162-0.3338-7.8584-2.3143-9.2535-5.324-0.12461-0.26883-0.21996-0.49569-0.21187-0.50414 0.0081-0.0085 0.23507 0.0044 0.50442 0.0284 0.26935 0.02407 0.61082 0.04377 0.75881 0.04377 0.148 0 0.2693 0.01367 0.26958 0.03038 0.0013 0.0797 0.45269 0.74515 0.73315 1.0808 1.0643 1.2737 2.7895 2.2897 4.7864 2.8186 1.914 0.50695 4.2095 0.61634 5.917 0.28196l0.41514-0.08129 0.47592 0.50066c0.68999 0.72586 1.3337 1.1339 2.3397 1.4833 0.91489 0.31769 1.8099 0.46308 2.8707 0.46634 0.85516 0.0026 0.91053-0.02285 0.52844-0.24315-0.4769-0.27496-1.0175-0.67025-1.318-0.96365-0.55237-0.53944-0.84741-1.0419-1.0316-1.7567l-0.09618-0.37337 0.33834-0.26244c1.5248-1.1827 2.4993-2.6619 2.8491-4.3244 0.08493-0.40365 0.11948-1.4979 0.06162-1.9515-0.26034-2.0412-1.5913-3.9507-3.6611-5.2527-0.36551-0.22992-1.0158-0.57243-1.3894-0.73181-0.16911-0.07214-0.21805-0.11096-0.19976-0.15846 0.05528-0.14359 0.20493-0.8089 0.2307-1.0257 0.01527-0.12842 0.04187-0.24261 0.05912-0.25376 0.0852-0.05507 1.321 0.54035 1.9741 0.95116 2.4603 1.5475 4.0059 3.805 4.3199 6.31 0.26147 2.0859-0.36468 4.1636-1.8 5.9728-0.20944 0.264-0.80987 0.89712-1.0427 1.0995l-0.16937 0.1472 0.13842 0.1972c0.17635 0.25122 0.44691 0.51538 0.74275 0.72517 0.21671 0.15368 1.0513 0.66125 1.3883 0.84432 0.28335 0.15394 0.57962 0.43766 0.69208 0.66278 0.27328 0.54704 0.02239 1.0996-0.64695 1.4249-0.54844 0.26652-1.1478 0.36688-2.1298 0.35662-0.34148-0.0036-0.6819-0.01289-0.75648-0.0207zm-27.108-7.3238c-0.52658-0.12535-0.98808-0.45958-1.1484-0.83168-0.12037-0.27943-0.10853-0.70451 0.02632-0.94515 0.18256-0.32576 0.40202-0.48601 1.071-0.78209 0.4562-0.20189 1.0325-0.67642 1.4214-1.1704 0.31778-0.40363 0.64219-1.0367 0.71374-1.3928l0.043726-0.21763-0.34555-0.36982c-1.488-1.5926-2.4641-3.4885-2.8574-5.5502-0.26488-1.3886-0.22719-3.1006 0.098195-4.4606 0.89776-3.7525 3.7554-6.8298 7.6226-8.2085 1.3847-0.49366 2.7601-0.72602 4.2975-0.72602 3.462 0 6.5918 1.2909 8.933 3.6845 1.715 1.7533 2.7492 3.8171 3.1116 6.209 0.09972 0.65826 0.0997 2.3741-3.2e-5 3.0303-0.30631 2.0153-1.1371 3.8206-2.4866 5.4036-1.2821 1.5039-3.2319 2.7937-5.2871 3.4974-1.2987 0.4447-2.5055 0.65066-4.03 0.68776-1.0746 0.02615-1.8542-0.0197-2.5754-0.15144-0.48007-0.0877-0.56988-0.09568-0.49149-0.0437 0.09845 0.06529-0.71655 0.51178-1.9686 1.0785-1.3006 0.58868-2.4944 0.98766-3.5936 1.2011-0.55698 0.10813-2.1885 0.14504-2.5549 0.0578zm2.1969-1.4442c1.5272-0.27106 3.9346-1.2239 5.4389-2.1527l0.42189-0.26048 0.37094 0.09378c0.84921 0.21469 2.6209 0.30154 3.6861 0.1807 1.33-0.15089 2.5526-0.47352 3.6449-0.96184 3.2792-1.466 5.4564-4.228 5.9098-7.4975 0.08677-0.62569 0.08701-1.7251 4.85e-4 -2.3928-0.43702-3.3739-2.7052-6.3355-5.9909-7.8222-2.3641-1.0697-5.185-1.2954-7.7229-0.61774-0.82994 0.22159-1.4869 0.47737-2.2918 0.89227-2.5649 1.3222-4.3971 3.4669-5.1853 6.0699-0.32262 1.0655-0.45946 2.2597-0.37701 3.2906 0.10641 1.3304 0.3908 2.392 0.94895 3.5422 0.48634 1.0022 1.1125 1.8618 2.0114 2.7615l0.53008 0.53049-0.13296 0.64441c-0.18634 0.90309-0.40068 1.413-0.86973 2.0691-0.39167 0.54786-0.99141 1.0892-1.5859 1.4315-0.17415 0.10027-0.31691 0.19491-0.31725 0.21031-3.39e-4 0.0154 0.073471 0.04645 0.16403 0.06899 0.21384 0.05323 0.78578 0.01908 1.3463-0.0804zm2.8281-8.6663v-0.68873h8.2907v1.3775h-8.2907zm0-3.6462v-0.68873h11.777v1.3775h-11.777zm0-3.6462v-0.68873h11.777v1.3775h-11.777zm11.119 15.846c0.61023-0.22848 1.3156-0.55418 1.879-0.86756 0.277-0.1541 0.5202-0.29666 0.54045-0.3168 0.02126-0.02115 1.277-0.03662 2.9734-0.03662h2.9366v1.3775l-8.7362-0.0042 0.40679-0.1523zm5.3145-3.6056c0.04949-0.06373 0.19465-0.24148 0.32258-0.39501 0.12793-0.15353 0.32646-0.41132 0.44117-0.57286l0.20856-0.29372h2.0427v1.3775h-3.1049z" style="stroke-width:.039618"/>
</svg>
