<svg width="32" height="32" version="1.1" viewBox="0 0 32 32" xmlns="http://www.w3.org/2000/svg">
 <path d="m13.585 32.054c-3.5847-0.68332-6.4284-2.1559-8.8641-4.5903-2.0869-2.0857-3.4168-4.3638-4.2158-7.2211-0.37016-1.3238-0.3976-1.6109-0.3976-4.1592 0-2.5483 0.027436-2.8353 0.3976-4.1592 0.79894-2.8573 2.1289-5.1354 4.2158-7.2211 2.0869-2.0857 4.3662-3.4149 7.2251-4.2134 1.3246-0.36996 1.6117-0.39738 4.1615-0.39738 2.5498 0 2.8369 0.027421 4.1615 0.39738 2.8589 0.79849 5.1382 2.1277 7.2251 4.2134 2.0869 2.0857 3.4168 4.3638 4.2158 7.2211 0.37016 1.3239 0.3976 1.6109 0.3976 4.1592 0 2.5483-0.02743 2.8353-0.3976 4.1592-0.79894 2.8573-2.1289 5.1354-4.2158 7.2211-2.0668 2.0657-4.3555 3.4081-7.1498 4.1936-1.1859 0.33339-1.6671 0.3859-3.8765 0.42303-1.3874 0.02332-2.6847 0.01148-2.8829-0.0263zm7.5564-8.0111c0.19597-0.30004 2.9661-12.98 2.9661-13.577 0-0.36421-0.41448-0.79372-0.76594-0.79372-0.25011 0-12.722 4.7353-15.624 5.9321-0.99093 0.40866-1.3483 0.76337-1.128 1.1197 0.096302 0.15573 4.0853 1.448 4.4697 1.448 0.13501 0 1.2937-0.66076 2.5749-1.4684 5.9022-3.7205 7.0631-4.4383 7.1786-4.4383 0.40581 0-0.28215 0.70352-3.6222 3.7042-4.2037 3.7765-3.8072 3.18-3.9779 5.9842-0.07038 1.1559-0.05069 1.5487 0.07762 1.5487 0.09456 0 0.71642-0.52117 1.3819-1.1582l1.21-1.1582 1.6984 1.2575c2.3805 1.7626 2.632 1.9232 3.0124 1.9232 0.19058 0 0.42889-0.1408 0.54864-0.32414z" style="fill:#666;stroke-width:.1441"/>
</svg>
