<svg width="64" height="64" version="1.1" viewBox="0 0 64 64" xmlns="http://www.w3.org/2000/svg">
 <path d="m27.111 64.158c-7.1693-1.3666-12.857-4.3119-17.728-9.1807-4.1738-4.1714-6.8337-8.7275-8.4315-14.442-0.74032-2.6477-0.79519-3.2217-0.79519-8.3184s0.054871-5.6707 0.79519-8.3184c1.5979-5.7147 4.2578-10.271 8.4315-14.442 4.1738-4.1714 8.7324-6.8299 14.45-8.4269 2.6492-0.73991 3.2235-0.79475 8.323-0.79475s5.6738 0.054842 8.323 0.79475c5.7179 1.597 10.276 4.2554 14.45 8.4269 4.1738 4.1714 6.8337 8.7275 8.4315 14.442 0.74032 2.6477 0.79519 3.2217 0.79519 8.3184s-0.05487 5.6707-0.79519 8.3184c-1.5979 5.7147-4.2578 10.271-8.4315 14.442-4.1337 4.1314-8.711 6.8162-14.3 8.3872-2.3719 0.66678-3.3341 0.77179-7.753 0.84606-2.7748 0.04664-5.3694 0.02296-5.7658-0.05259zm15.113-16.022c0.39194-0.60008 5.9322-25.959 5.9322-27.153 0-0.72842-0.82896-1.5874-1.5319-1.5874-0.50022 0-25.444 9.4707-31.248 11.864-1.9819 0.81731-2.6965 1.5267-2.2559 2.2393 0.1926 0.31146 8.1705 2.896 8.9394 2.896 0.27003 0 2.5874-1.3215 5.1497-2.9367 11.804-7.441 14.126-8.8765 14.357-8.8765 0.81162 0-0.5643 1.407-7.2445 7.4083-8.4074 7.5529-7.6143 6.3599-7.9558 11.968-0.14076 2.3118-0.10139 3.0974 0.15525 3.0974 0.18911 0 1.4328-1.0423 2.7638-2.3163l2.42-2.3163 3.3967 2.515c4.761 3.5252 5.2641 3.8464 6.0249 3.8464 0.38115 0 0.85777-0.2816 1.0973-0.64829z" fill="#666" stroke-width=".28821"/>
</svg>
