<svg width="64" height="64" version="1.1" viewBox="0 0 64 64" xmlns="http://www.w3.org/2000/svg">
 <path d="m17.161 63.905c-0.5823-0.2246-0.97208-0.59174-1.2975-1.2221l-0.32352-0.62676-0.10142-7.7767-0.45635-0.11472c-0.84653-0.2128-2.3772-0.78263-3.4097-1.2693-5.1759-2.4398-8.5251-6.5005-10.239-12.414-1.0925-3.7695-1.4963-8.3609-1.2757-14.506 0.16064-4.4743 0.50805-7.1794 1.2825-9.9861 1.2367-4.4817 3.6516-8.2816 6.5938-10.375 4.5439-3.2335 11.297-5.0974 20.091-5.5459 3.9249-0.20008 10.382 0.054627 13.78 0.54359 7.5391 1.0848 13.636 3.6954 16.563 7.0924 3.1159 3.6159 4.8845 8.5764 5.51 15.454 0.1624 1.7858 0.16203 7.0658-6.08e-4 9.1834-0.29575 3.8499-0.71832 6.6859-1.2934 8.6806-1.9851 6.885-6.6234 11.353-13.782 13.275-1.8166 0.4879-3.5597 0.89489-4.7663 1.1129-4.454 0.80481-10.258 1.1639-15.059 0.9319l-2.2817-0.11028-0.35494 0.36962c-0.73014 0.76035-1.7101 1.8138-2.0766 2.2323-0.20842 0.238-0.80032 0.86545-1.3153 1.3943s-1.2804 1.3307-1.7008 1.7818c-1.3398 1.4377-2.1495 1.9453-3.1694 1.987-0.33621 0.01375-0.7489-0.02809-0.9171-0.09296zm1.158-2.0364c0.39571-0.19404 1.7217-1.5656 5.0363-5.2096 0.4419-0.48581 2.9085-3.266 3.999-4.5074l0.35494-0.40406 2.5353 0.04544c3.6131 0.06476 7.2592-0.16256 10.539-0.6571 3.8179-0.5756 7.6807-1.5799 9.5881-2.4929 4.0893-1.9574 6.8855-5.7508 7.9597-10.798 0.68319-3.2101 1.0798-8.928 0.87188-12.57-0.41399-7.252-2.1395-12.222-5.3031-15.274-3.0075-2.9014-9.643-4.9055-17.876-5.399-2.4802-0.14866-7.5986-0.1222-9.6209 0.049745-5.451 0.46345-10.04 1.6445-13.255 3.4116-3.7026 2.0347-6.0268 5.2416-7.2816 10.047-0.33228 1.2726-0.67531 3.1639-0.77612 4.2791-0.035857 0.39666-0.083135 0.82939-0.10506 0.96161-0.10996 0.66306-0.2523 6.5176-0.19522 8.0295 0.26908 7.1273 1.8794 11.66 5.2892 14.889 1.6982 1.6079 3.5375 2.6724 6.0912 3.5251l1.093 0.36497v5.6639c0 5.2602 0.01281 5.6825 0.17981 5.9243 0.20157 0.29185 0.45515 0.32687 0.87524 0.12088zm21.914-16.772c-3.0186-1.0598-6.9067-2.9841-10.081-4.9894-3.4642-2.1883-5.9521-4.3538-8.6438-7.524-0.63668-0.74984-0.6748-0.80086-1.7665-2.3642-2.507-3.5901-5.1647-8.6651-5.5904-10.675-0.36874-1.741 1.2279-3.9715 4.0204-5.6166 1.3414-0.7902 2.3788-0.84746 3.2346-0.17854 0.92302 0.72145 3.7615 4.3504 4.7308 6.0484 0.32686 0.57254 0.35484 0.68639 0.35372 1.4391-0.0017 1.141-0.17649 1.4205-1.517 2.4264-1.6588 1.2447-1.8749 1.8444-1.2325 3.4216 1.6827 4.1314 4.8381 7.3814 8.6443 8.903 1.1056 0.442 2.2532 0.73823 2.6249 0.67755 0.87423-0.14274 1.0723-0.29046 2.2342-1.6662 0.71963-0.85207 1.1308-1.1269 1.9072-1.2747 0.48939-0.0932 0.68301-0.08562 1.1836 0.04635 1.0096 0.26616 3.2339 1.6013 5.3738 3.2257 2.084 1.582 2.3972 1.9962 2.3137 3.0605-0.05245 0.66904-0.36032 1.2815-1.1613 2.3104-0.9381 1.205-2.0127 2.1383-3.0186 2.622-0.78264 0.37629-0.95362 0.42134-1.7074 0.44992-0.7666 0.02905-0.92802 1.9e-5 -1.9025-0.34211zm7.8593-15.489c-0.44218-0.17179-0.52922-0.39496-0.6021-1.5439-0.14296-2.2536-0.37992-3.5227-0.97528-5.2234-1.9778-5.6499-7.4269-9.4483-13.988-9.7507-1.2095-0.05576-1.2793-0.07037-1.5465-0.32377-0.36762-0.34859-0.36215-0.69775 0.01656-1.0569 0.33962-0.32204 0.39353-0.32645 2.1881-0.17934 1.4725 0.1207 2.8885 0.38352 4.1963 0.77885 3.6862 1.1142 7.0756 3.6232 9.138 6.7643 1.6102 2.4523 2.6296 6.0318 2.636 9.2555 0.0015 0.76263-0.02717 0.91692-0.20106 1.0818-0.11155 0.10578-0.24472 0.19232-0.29594 0.19232-0.05121 0-0.15389 0.01893-0.22817 0.04207s-0.22633 0.0066-0.33788-0.03673zm-4.7865-1.8564c-0.17349-0.18072-0.22552-0.43021-0.31586-1.5145-0.05949-0.714-0.20261-1.6443-0.31805-2.0674-0.25421-0.93171-0.87143-2.1833-1.4668-2.9745-0.48936-0.65028-1.7115-1.7898-2.3996-2.2374-1.3507-0.8786-3.3304-1.4849-5.5212-1.691-0.22429-0.0211-0.50846-0.08945-0.63149-0.15188-0.49151-0.24943-0.57338-0.84846-0.16844-1.2324 0.25347-0.24034 0.2919-0.24682 1.0902-0.18376 4.4064 0.34812 7.9946 2.4832 9.7923 5.8267 0.84424 1.5702 1.2087 2.909 1.2998 4.7748 0.05676 1.1622 0.05561 1.1701-0.20617 1.4184-0.34104 0.32339-0.86177 0.33839-1.1547 0.03326zm-4.3989-1.411c-0.22327-0.21171-0.29687-0.37191-0.29819-0.64909-0.0028-0.58706-0.26442-1.6013-0.55165-2.1388-0.53341-0.99815-1.5612-1.6484-2.9073-1.8393-1.1338-0.16082-1.1832-0.17488-1.4042-0.39979-0.41826-0.4257-0.17246-1.1385 0.44312-1.285 0.34916-0.0831 1.6023 0.11687 2.4179 0.38583 1.769 0.58336 2.9293 1.8151 3.4115 3.6215 0.10432 0.39084 0.22179 1.0026 0.26105 1.3595 0.06955 0.63219 0.06356 0.65628-0.23309 0.93757-0.39293 0.37259-0.75174 0.37499-1.1392 0.0076z" fill="#666" stroke-width=".09875"/>
</svg>
