<svg width="64" height="64" version="1.1" viewBox="0 0 64 64" xmlns="http://www.w3.org/2000/svg">
 <path d="m25.262 63.253c-12.202-2.6482-21.861-12.396-24.47-24.697-1.5622-7.3655-0.85026-13.294 2.4571-20.458 2.524-5.4677 9.0096-12.173 14.164-14.643 15.227-7.2971 32.383-2.7545 41.507 10.99 3.1214 4.7024 4.6605 9.5619 5.0188 15.846 0.544 9.5425-2.5254 17.523-9.354 24.32-7.8325 7.7965-18.599 10.97-29.323 8.6425zm-8.8347-12.002 4.9908-1.5208 3.6282 1.2211c12.861 4.3284 26.022-4.1875 27.442-17.756 0.26642-2.5466 0.08075-4.599-0.64014-7.0765-1.2129-4.1681-2.1537-5.777-5.3898-9.2174-9.895-10.52-27.313-7.4852-33.798 5.8881-2.1495 4.4324-2.2949 11.984-0.31468 16.338l1.2926 2.8421-1.764 5.2137c-0.97021 2.8675-1.764 5.298-1.764 5.401 0 0.43945 1.6243 0.09657 6.3173-1.3335zm12.493-3.2721c-1.3706-0.20235-3.5786-0.85744-4.9067-1.4558-2.2413-1.0097-2.6118-1.0208-5.1589-0.1537-1.5093 0.51378-2.7442 0.84955-2.7442 0.74616 0-0.1034 0.41458-1.3619 0.92127-2.7967 0.88952-2.5188 0.86631-2.731-0.67331-6.1585-1.3843-3.0817-1.5578-4.1228-1.3155-7.8946 1.08-16.812 22.863-21.727 31.447-7.095 1.8946 3.2297 2.5502 9.0995 1.4536 13.013-2.202 7.8572-10.567 13.044-19.023 11.795zm11.15-6.8751c3.2843-1.6967 3.2479-3.9711-0.09547-5.9629l-2.5387-1.5124-3.3254 3.1829-2.5207-1.7699c-1.3864-0.97345-3.0377-2.6543-3.6696-3.7353-1.1084-1.896-1.1107-2.0076-0.06612-3.1608 0.96392-1.0641 0.99619-1.4399 0.29387-3.4218-0.43394-1.2245-1.0578-2.5636-1.3863-2.9758-1.5248-1.913-4.8376 0.20222-5.5759 3.5602-0.87938 4 5.5336 12.552 11.426 15.237 3.556 1.6203 5.1697 1.7413 7.4579 0.55916z" fill="#666" stroke-width=".59978"/>
</svg>
